<svg width="575" height="73" fill="none" xmlns="http://www.w3.org/2000/svg"><g filter="url(#a)"><mask id="b" maskUnits="userSpaceOnUse" x="2" y="4" width="507" height="49" fill="#000"><path fill="#fff" d="M2 4h507v49H2z"/><path d="M8.66 41H4.226L17.046 6.09h4.363L34.227 41h-4.431L19.364 11.614h-.273L8.659 41Zm1.636-13.636h17.863v3.75H10.296v-3.75Zm32.846-2.114V41h-4.023V14.818h3.887v4.091h.34a7.477 7.477 0 0 1 2.796-3.204c1.25-.819 2.864-1.228 4.841-1.228 1.773 0 3.324.364 4.653 1.091 1.33.716 2.364 1.807 3.103 3.273.738 1.454 1.108 3.295 1.108 5.523V41h-4.023V24.636c0-2.056-.534-3.659-1.602-4.806-1.069-1.16-2.535-1.74-4.398-1.74-1.284 0-2.432.28-3.443.836-1 .557-1.79 1.37-2.37 2.438-.58 1.068-.869 2.363-.869 3.886Zm33.942 16.295c-2.182 0-4.108-.55-5.779-1.653-1.67-1.114-2.977-2.682-3.92-4.705-.943-2.034-1.415-4.437-1.415-7.21 0-2.75.472-5.136 1.415-7.159.943-2.023 2.256-3.585 3.937-4.687 1.682-1.103 3.625-1.654 5.83-1.654 1.704 0 3.051.284 4.04.852 1 .557 1.761 1.194 2.284 1.91.534.704.949 1.284 1.244 1.738h.341V6.091h4.023V41h-3.887v-4.023h-.477c-.295.478-.716 1.08-1.261 1.807-.546.716-1.324 1.358-2.335 1.926-1.012.557-2.358.835-4.04.835Zm.545-3.613c1.614 0 2.977-.42 4.091-1.262 1.114-.852 1.96-2.028 2.54-3.528.58-1.511.87-3.256.87-5.233 0-1.954-.285-3.665-.853-5.13-.568-1.478-1.41-2.626-2.523-3.444-1.113-.83-2.488-1.244-4.125-1.244-1.704 0-3.125.437-4.261 1.312-1.125.864-1.972 2.04-2.54 3.529-.557 1.477-.835 3.136-.835 4.977 0 1.864.284 3.557.852 5.08.58 1.511 1.432 2.716 2.557 3.613 1.136.887 2.545 1.33 4.227 1.33Zm30.358 3.613c-2.523 0-4.699-.556-6.528-1.67-1.818-1.125-3.222-2.693-4.21-4.705-.978-2.022-1.466-4.375-1.466-7.056 0-2.682.488-5.046 1.466-7.091.988-2.057 2.363-3.66 4.125-4.807 1.772-1.16 3.84-1.739 6.204-1.739 1.364 0 2.71.227 4.04.682 1.329.455 2.54 1.193 3.631 2.216 1.09 1.011 1.96 2.352 2.608 4.023.647 1.67.971 3.727.971 6.17v1.705H98.646v-3.477h16.091c0-1.478-.295-2.796-.886-3.955a6.68 6.68 0 0 0-2.489-2.744c-1.068-.67-2.329-1.006-3.784-1.006-1.602 0-2.989.398-4.159 1.193a7.849 7.849 0 0 0-2.676 3.068 9.013 9.013 0 0 0-.938 4.057v2.318c0 1.977.341 3.654 1.023 5.029.693 1.363 1.654 2.403 2.881 3.119 1.227.705 2.653 1.057 4.278 1.057 1.057 0 2.012-.148 2.864-.443a6.134 6.134 0 0 0 2.233-1.364c.625-.614 1.108-1.375 1.449-2.284l3.886 1.09a8.625 8.625 0 0 1-2.062 3.478c-.966.989-2.16 1.761-3.58 2.318-1.42.546-3.017.819-4.79.819Zm35.506-20.863-3.614 1.023a6.706 6.706 0 0 0-1.005-1.756c-.432-.58-1.023-1.057-1.773-1.432s-1.71-.563-2.881-.563c-1.602 0-2.937.37-4.006 1.108-1.056.728-1.585 1.654-1.585 2.779 0 1 .364 1.79 1.091 2.37.727.579 1.864 1.062 3.409 1.448l3.887.955c2.341.568 4.085 1.437 5.233 2.608 1.147 1.159 1.721 2.653 1.721 4.483 0 1.5-.432 2.84-1.295 4.022-.853 1.182-2.046 2.114-3.58 2.796-1.534.681-3.318 1.022-5.352 1.022-2.671 0-4.881-.58-6.631-1.738-1.75-1.16-2.858-2.852-3.324-5.08l3.819-.954c.363 1.409 1.051 2.466 2.062 3.17 1.023.705 2.358 1.057 4.006 1.057 1.875 0 3.363-.398 4.466-1.193 1.113-.807 1.67-1.773 1.67-2.898 0-.909-.318-1.67-.954-2.284-.637-.625-1.614-1.09-2.932-1.398l-4.364-1.023c-2.398-.568-4.159-1.448-5.284-2.642-1.114-1.204-1.67-2.71-1.67-4.517 0-1.477.414-2.784 1.244-3.92.841-1.136 1.983-2.028 3.426-2.676 1.455-.648 3.102-.972 4.943-.972 2.591 0 4.625.569 6.102 1.705 1.489 1.136 2.546 2.636 3.171 4.5ZM164.071 41V6.09h11.795c2.739 0 4.978.495 6.716 1.484 1.75.977 3.046 2.301 3.887 3.972.841 1.67 1.261 3.534 1.261 5.59 0 2.057-.42 3.927-1.261 5.608-.83 1.682-2.114 3.023-3.853 4.023-1.738.989-3.965 1.483-6.681 1.483h-8.455V24.5h8.318c1.875 0 3.381-.324 4.517-.972 1.137-.647 1.961-1.522 2.472-2.625.523-1.113.784-2.369.784-3.767 0-1.397-.261-2.647-.784-3.75-.511-1.102-1.341-1.965-2.489-2.59-1.147-.637-2.67-.955-4.568-.955h-7.432V41h-4.227Zm40.619.545c-2.522 0-4.699-.556-6.528-1.67-1.818-1.125-3.222-2.693-4.21-4.705-.978-2.022-1.466-4.375-1.466-7.056 0-2.682.488-5.046 1.466-7.091.988-2.057 2.363-3.66 4.125-4.807 1.772-1.16 3.841-1.739 6.204-1.739 1.364 0 2.71.227 4.04.682 1.33.455 2.54 1.193 3.631 2.216 1.091 1.011 1.96 2.352 2.608 4.023.647 1.67.971 3.727.971 6.17v1.705h-20.182v-3.477h16.091c0-1.478-.295-2.796-.886-3.955a6.68 6.68 0 0 0-2.489-2.744c-1.068-.67-2.329-1.006-3.784-1.006-1.602 0-2.988.398-4.159 1.193a7.849 7.849 0 0 0-2.676 3.068 9.013 9.013 0 0 0-.937 4.057v2.318c0 1.977.34 3.654 1.022 5.029.693 1.363 1.654 2.403 2.881 3.119 1.227.705 2.653 1.057 4.278 1.057 1.057 0 2.012-.148 2.864-.443a6.126 6.126 0 0 0 2.233-1.364c.625-.614 1.108-1.375 1.449-2.284l3.886 1.09a8.614 8.614 0 0 1-2.062 3.478c-.966.989-2.159 1.761-3.58 2.318-1.42.546-3.017.819-4.79.819Zm24.665.069c-1.659 0-3.165-.313-4.517-.938-1.352-.636-2.426-1.551-3.222-2.744-.795-1.205-1.193-2.66-1.193-4.364 0-1.5.296-2.716.887-3.647a6.254 6.254 0 0 1 2.369-2.216c.989-.534 2.08-.932 3.273-1.194a39.763 39.763 0 0 1 3.63-.647 164.26 164.26 0 0 1 3.87-.46c1-.114 1.727-.302 2.182-.563.465-.262.698-.716.698-1.364v-.136c0-1.682-.46-2.989-1.38-3.92-.909-.932-2.29-1.398-4.142-1.398-1.921 0-3.426.42-4.517 1.261-1.091.841-1.858 1.739-2.302 2.693l-3.818-1.363c.682-1.591 1.591-2.83 2.728-3.716a10.21 10.21 0 0 1 3.75-1.875 15.563 15.563 0 0 1 4.022-.546c.841 0 1.807.102 2.898.307a9.282 9.282 0 0 1 3.188 1.21c1.034.614 1.892 1.54 2.573 2.779.682 1.238 1.023 2.898 1.023 4.977V41h-4.023v-3.545h-.204c-.273.568-.727 1.176-1.364 1.823-.636.648-1.483 1.2-2.54 1.654-1.056.454-2.346.682-3.869.682Zm.614-3.614c1.591 0 2.932-.313 4.022-.938 1.103-.624 1.932-1.431 2.489-2.42.568-.989.852-2.028.852-3.12v-3.681c-.17.204-.545.392-1.125.562-.568.16-1.227.302-1.977.427-.739.113-1.46.216-2.165.306-.693.08-1.255.148-1.687.205a15.363 15.363 0 0 0-2.932.665c-.898.295-1.625.744-2.182 1.346-.545.591-.818 1.398-.818 2.42 0 1.398.517 2.455 1.551 3.171 1.046.705 2.369 1.057 3.972 1.057Zm22.478-6.546-.068-4.977h.818l11.455-11.659h4.977L257.425 27.16h-.341l-4.637 4.296ZM248.697 41V6.09h4.023V41h-4.023Zm16.637 0-10.227-12.954 2.863-2.796L270.447 41h-5.113Zm23.518-34.91h5.046l11.863 28.978h.409l11.864-28.977h5.046V41h-3.955V14.477h-.341L307.875 41h-3.818l-10.909-26.523h-.341V41h-3.955V6.09Zm49.862 35.524c-1.659 0-3.164-.313-4.517-.938-1.352-.636-2.426-1.551-3.221-2.744-.796-1.205-1.193-2.66-1.193-4.364 0-1.5.295-2.716.886-3.647a6.26 6.26 0 0 1 2.369-2.216c.989-.534 2.08-.932 3.273-1.194a39.846 39.846 0 0 1 3.631-.647c1.591-.205 2.88-.358 3.869-.46 1-.114 1.727-.302 2.182-.563.466-.262.699-.716.699-1.364v-.136c0-1.682-.46-2.989-1.381-3.92-.909-.932-2.29-1.398-4.142-1.398-1.92 0-3.426.42-4.517 1.261-1.091.841-1.858 1.739-2.301 2.693l-3.818-1.363c.681-1.591 1.591-2.83 2.727-3.716a10.226 10.226 0 0 1 3.75-1.875 15.57 15.57 0 0 1 4.023-.546c.841 0 1.806.102 2.897.307a9.274 9.274 0 0 1 3.188 1.21c1.034.614 1.892 1.54 2.574 2.779.682 1.238 1.022 2.898 1.022 4.977V41h-4.022v-3.545h-.205c-.273.568-.727 1.176-1.363 1.823-.637.648-1.483 1.2-2.54 1.654-1.057.454-2.347.682-3.87.682Zm.614-3.614c1.591 0 2.932-.313 4.023-.938 1.102-.624 1.932-1.431 2.488-2.42.569-.989.853-2.028.853-3.12v-3.681c-.171.204-.546.392-1.125.562a18.98 18.98 0 0 1-1.978.427c-.738.113-1.46.216-2.164.306-.693.08-1.256.148-1.688.205a15.38 15.38 0 0 0-2.932.665c-.897.295-1.625.744-2.181 1.346-.546.591-.819 1.398-.819 2.42 0 1.398.517 2.455 1.552 3.171 1.045.705 2.369 1.057 3.971 1.057Zm18.729 3V14.818h3.886v3.955h.273c.477-1.296 1.341-2.347 2.591-3.154 1.25-.806 2.659-1.21 4.227-1.21.296 0 .665.006 1.108.017.443.011.778.028 1.006.051v4.091a12 12 0 0 0-.938-.153 9.218 9.218 0 0 0-1.517-.12c-1.273 0-2.409.267-3.409.802a6.036 6.036 0 0 0-2.352 2.181c-.568.92-.852 1.972-.852 3.154V41h-4.023Zm21.609-9.546-.068-4.977h.818l11.455-11.659h4.977L384.643 27.16h-.34l-4.637 4.296ZM375.916 41V6.09h4.023V41h-4.023Zm16.637 0-10.228-12.954 2.864-2.796L397.666 41h-5.113Zm19.372.545c-2.523 0-4.699-.556-6.529-1.67-1.818-1.125-3.221-2.693-4.21-4.705-.977-2.022-1.466-4.375-1.466-7.056 0-2.682.489-5.046 1.466-7.091.989-2.057 2.364-3.66 4.125-4.807 1.773-1.16 3.841-1.739 6.205-1.739 1.363 0 2.71.227 4.039.682 1.33.455 2.54 1.193 3.631 2.216 1.091 1.011 1.96 2.352 2.608 4.023.648 1.67.972 3.727.972 6.17v1.705h-20.182v-3.477h16.091c0-1.478-.296-2.796-.887-3.955a6.677 6.677 0 0 0-2.488-2.744c-1.068-.67-2.33-1.006-3.784-1.006-1.603 0-2.989.398-4.159 1.193a7.843 7.843 0 0 0-2.677 3.068 9.013 9.013 0 0 0-.937 4.057v2.318c0 1.977.341 3.654 1.023 5.029.693 1.363 1.653 2.403 2.88 3.119 1.228.705 2.654 1.057 4.279 1.057 1.057 0 2.011-.148 2.863-.443a6.126 6.126 0 0 0 2.233-1.364c.625-.614 1.108-1.375 1.449-2.284l3.887 1.09a8.627 8.627 0 0 1-2.063 3.478c-.966.989-2.159 1.761-3.58 2.318-1.42.546-3.017.819-4.789.819Zm28.346-26.727v3.41h-13.568v-3.41h13.568Zm-9.613-6.273h4.022V33.5c0 1.136.165 1.989.495 2.557.341.557.772.932 1.295 1.125a5.203 5.203 0 0 0 1.688.273 7.15 7.15 0 0 0 1.091-.069l.681-.136.819 3.614a8.22 8.22 0 0 1-1.142.306c-.489.114-1.108.17-1.858.17a8.096 8.096 0 0 1-3.341-.732 6.637 6.637 0 0 1-2.694-2.233c-.704-1-1.056-2.261-1.056-3.784V8.545ZM446.322 41V14.818h4.023V41h-4.023Zm2.046-30.546c-.784 0-1.46-.267-2.029-.8-.556-.535-.835-1.177-.835-1.927s.279-1.392.835-1.926A2.863 2.863 0 0 1 448.368 5c.784 0 1.454.267 2.011.801.568.534.853 1.176.853 1.926s-.285 1.392-.853 1.926a2.8 2.8 0 0 1-2.011.801Zm13.368 14.796V41h-4.023V14.818h3.886v4.091h.341a7.48 7.48 0 0 1 2.796-3.204c1.25-.819 2.863-1.228 4.841-1.228 1.772 0 3.324.364 4.653 1.091 1.33.716 2.364 1.807 3.102 3.273.739 1.454 1.108 3.295 1.108 5.523V41h-4.022V24.636c0-2.056-.534-3.659-1.603-4.806-1.068-1.16-2.534-1.74-4.397-1.74-1.284 0-2.432.28-3.444.836-1 .557-1.789 1.37-2.369 2.438-.579 1.068-.869 2.363-.869 3.886Zm34.623 26.114c-1.943 0-3.613-.25-5.011-.75-1.398-.489-2.562-1.137-3.494-1.944-.921-.795-1.654-1.647-2.199-2.556l3.204-2.25c.364.477.824 1.022 1.381 1.636.557.625 1.318 1.165 2.284 1.62.977.465 2.256.698 3.835.698 2.114 0 3.858-.511 5.233-1.534 1.375-1.023 2.063-2.625 2.063-4.807V36.16h-.341a21.883 21.883 0 0 1-1.261 1.773c-.535.693-1.307 1.312-2.319 1.858-1 .534-2.352.8-4.056.8-2.114 0-4.012-.5-5.694-1.5-1.67-1-2.994-2.454-3.971-4.363-.966-1.909-1.449-4.227-1.449-6.954 0-2.682.472-5.017 1.415-7.006.943-2 2.255-3.545 3.937-4.636 1.682-1.103 3.625-1.654 5.83-1.654 1.704 0 3.057.284 4.057.852 1.011.557 1.784 1.194 2.318 1.91.545.704.966 1.284 1.261 1.738h.409v-4.159h3.887V41.75c0 2.25-.512 4.08-1.535 5.489-1.011 1.42-2.375 2.46-4.09 3.119-1.705.67-3.603 1.006-5.694 1.006Zm-.136-14.387c1.614 0 2.977-.369 4.091-1.108 1.114-.738 1.96-1.8 2.54-3.187.579-1.387.869-3.046.869-4.978 0-1.886-.284-3.55-.852-4.994-.568-1.443-1.409-2.574-2.523-3.392-1.114-.818-2.489-1.227-4.125-1.227-1.705 0-3.125.432-4.261 1.295-1.125.864-1.972 2.023-2.54 3.478-.557 1.454-.835 3.068-.835 4.84 0 1.819.284 3.427.852 4.824.579 1.387 1.432 2.478 2.557 3.273 1.136.784 2.545 1.176 4.227 1.176Z"/></mask><path d="M8.66 41H4.226L17.046 6.09h4.363L34.227 41h-4.431L19.364 11.614h-.273L8.659 41Zm1.636-13.636h17.863v3.75H10.296v-3.75Zm32.846-2.114V41h-4.023V14.818h3.887v4.091h.34a7.477 7.477 0 0 1 2.796-3.204c1.25-.819 2.864-1.228 4.841-1.228 1.773 0 3.324.364 4.653 1.091 1.33.716 2.364 1.807 3.103 3.273.738 1.454 1.108 3.295 1.108 5.523V41h-4.023V24.636c0-2.056-.534-3.659-1.602-4.806-1.069-1.16-2.535-1.74-4.398-1.74-1.284 0-2.432.28-3.443.836-1 .557-1.79 1.37-2.37 2.438-.58 1.068-.869 2.363-.869 3.886Zm33.942 16.295c-2.182 0-4.108-.55-5.779-1.653-1.67-1.114-2.977-2.682-3.92-4.705-.943-2.034-1.415-4.437-1.415-7.21 0-2.75.472-5.136 1.415-7.159.943-2.023 2.256-3.585 3.937-4.687 1.682-1.103 3.625-1.654 5.83-1.654 1.704 0 3.051.284 4.04.852 1 .557 1.761 1.194 2.284 1.91.534.704.949 1.284 1.244 1.738h.341V6.091h4.023V41h-3.887v-4.023h-.477c-.295.478-.716 1.08-1.261 1.807-.546.716-1.324 1.358-2.335 1.926-1.012.557-2.358.835-4.04.835Zm.545-3.613c1.614 0 2.977-.42 4.091-1.262 1.114-.852 1.96-2.028 2.54-3.528.58-1.511.87-3.256.87-5.233 0-1.954-.285-3.665-.853-5.13-.568-1.478-1.41-2.626-2.523-3.444-1.113-.83-2.488-1.244-4.125-1.244-1.704 0-3.125.437-4.261 1.312-1.125.864-1.972 2.04-2.54 3.529-.557 1.477-.835 3.136-.835 4.977 0 1.864.284 3.557.852 5.08.58 1.511 1.432 2.716 2.557 3.613 1.136.887 2.545 1.33 4.227 1.33Zm30.358 3.613c-2.523 0-4.699-.556-6.528-1.67-1.818-1.125-3.222-2.693-4.21-4.705-.978-2.022-1.466-4.375-1.466-7.056 0-2.682.488-5.046 1.466-7.091.988-2.057 2.363-3.66 4.125-4.807 1.772-1.16 3.84-1.739 6.204-1.739 1.364 0 2.71.227 4.04.682 1.329.455 2.54 1.193 3.631 2.216 1.09 1.011 1.96 2.352 2.608 4.023.647 1.67.971 3.727.971 6.17v1.705H98.646v-3.477h16.091c0-1.478-.295-2.796-.886-3.955a6.68 6.68 0 0 0-2.489-2.744c-1.068-.67-2.329-1.006-3.784-1.006-1.602 0-2.989.398-4.159 1.193a7.849 7.849 0 0 0-2.676 3.068 9.013 9.013 0 0 0-.938 4.057v2.318c0 1.977.341 3.654 1.023 5.029.693 1.363 1.654 2.403 2.881 3.119 1.227.705 2.653 1.057 4.278 1.057 1.057 0 2.012-.148 2.864-.443a6.134 6.134 0 0 0 2.233-1.364c.625-.614 1.108-1.375 1.449-2.284l3.886 1.09a8.625 8.625 0 0 1-2.062 3.478c-.966.989-2.16 1.761-3.58 2.318-1.42.546-3.017.819-4.79.819Zm35.506-20.863-3.614 1.023a6.706 6.706 0 0 0-1.005-1.756c-.432-.58-1.023-1.057-1.773-1.432s-1.71-.563-2.881-.563c-1.602 0-2.937.37-4.006 1.108-1.056.728-1.585 1.654-1.585 2.779 0 1 .364 1.79 1.091 2.37.727.579 1.864 1.062 3.409 1.448l3.887.955c2.341.568 4.085 1.437 5.233 2.608 1.147 1.159 1.721 2.653 1.721 4.483 0 1.5-.432 2.84-1.295 4.022-.853 1.182-2.046 2.114-3.58 2.796-1.534.681-3.318 1.022-5.352 1.022-2.671 0-4.881-.58-6.631-1.738-1.75-1.16-2.858-2.852-3.324-5.08l3.819-.954c.363 1.409 1.051 2.466 2.062 3.17 1.023.705 2.358 1.057 4.006 1.057 1.875 0 3.363-.398 4.466-1.193 1.113-.807 1.67-1.773 1.67-2.898 0-.909-.318-1.67-.954-2.284-.637-.625-1.614-1.09-2.932-1.398l-4.364-1.023c-2.398-.568-4.159-1.448-5.284-2.642-1.114-1.204-1.67-2.71-1.67-4.517 0-1.477.414-2.784 1.244-3.92.841-1.136 1.983-2.028 3.426-2.676 1.455-.648 3.102-.972 4.943-.972 2.591 0 4.625.569 6.102 1.705 1.489 1.136 2.546 2.636 3.171 4.5ZM164.071 41V6.09h11.795c2.739 0 4.978.495 6.716 1.484 1.75.977 3.046 2.301 3.887 3.972.841 1.67 1.261 3.534 1.261 5.59 0 2.057-.42 3.927-1.261 5.608-.83 1.682-2.114 3.023-3.853 4.023-1.738.989-3.965 1.483-6.681 1.483h-8.455V24.5h8.318c1.875 0 3.381-.324 4.517-.972 1.137-.647 1.961-1.522 2.472-2.625.523-1.113.784-2.369.784-3.767 0-1.397-.261-2.647-.784-3.75-.511-1.102-1.341-1.965-2.489-2.59-1.147-.637-2.67-.955-4.568-.955h-7.432V41h-4.227Zm40.619.545c-2.522 0-4.699-.556-6.528-1.67-1.818-1.125-3.222-2.693-4.21-4.705-.978-2.022-1.466-4.375-1.466-7.056 0-2.682.488-5.046 1.466-7.091.988-2.057 2.363-3.66 4.125-4.807 1.772-1.16 3.841-1.739 6.204-1.739 1.364 0 2.71.227 4.04.682 1.33.455 2.54 1.193 3.631 2.216 1.091 1.011 1.96 2.352 2.608 4.023.647 1.67.971 3.727.971 6.17v1.705h-20.182v-3.477h16.091c0-1.478-.295-2.796-.886-3.955a6.68 6.68 0 0 0-2.489-2.744c-1.068-.67-2.329-1.006-3.784-1.006-1.602 0-2.988.398-4.159 1.193a7.849 7.849 0 0 0-2.676 3.068 9.013 9.013 0 0 0-.937 4.057v2.318c0 1.977.34 3.654 1.022 5.029.693 1.363 1.654 2.403 2.881 3.119 1.227.705 2.653 1.057 4.278 1.057 1.057 0 2.012-.148 2.864-.443a6.126 6.126 0 0 0 2.233-1.364c.625-.614 1.108-1.375 1.449-2.284l3.886 1.09a8.614 8.614 0 0 1-2.062 3.478c-.966.989-2.159 1.761-3.58 2.318-1.42.546-3.017.819-4.79.819Zm24.665.069c-1.659 0-3.165-.313-4.517-.938-1.352-.636-2.426-1.551-3.222-2.744-.795-1.205-1.193-2.66-1.193-4.364 0-1.5.296-2.716.887-3.647a6.254 6.254 0 0 1 2.369-2.216c.989-.534 2.08-.932 3.273-1.194a39.763 39.763 0 0 1 3.63-.647 164.26 164.26 0 0 1 3.87-.46c1-.114 1.727-.302 2.182-.563.465-.262.698-.716.698-1.364v-.136c0-1.682-.46-2.989-1.38-3.92-.909-.932-2.29-1.398-4.142-1.398-1.921 0-3.426.42-4.517 1.261-1.091.841-1.858 1.739-2.302 2.693l-3.818-1.363c.682-1.591 1.591-2.83 2.728-3.716a10.21 10.21 0 0 1 3.75-1.875 15.563 15.563 0 0 1 4.022-.546c.841 0 1.807.102 2.898.307a9.282 9.282 0 0 1 3.188 1.21c1.034.614 1.892 1.54 2.573 2.779.682 1.238 1.023 2.898 1.023 4.977V41h-4.023v-3.545h-.204c-.273.568-.727 1.176-1.364 1.823-.636.648-1.483 1.2-2.54 1.654-1.056.454-2.346.682-3.869.682Zm.614-3.614c1.591 0 2.932-.313 4.022-.938 1.103-.624 1.932-1.431 2.489-2.42.568-.989.852-2.028.852-3.12v-3.681c-.17.204-.545.392-1.125.562-.568.16-1.227.302-1.977.427-.739.113-1.46.216-2.165.306-.693.08-1.255.148-1.687.205a15.363 15.363 0 0 0-2.932.665c-.898.295-1.625.744-2.182 1.346-.545.591-.818 1.398-.818 2.42 0 1.398.517 2.455 1.551 3.171 1.046.705 2.369 1.057 3.972 1.057Zm22.478-6.546-.068-4.977h.818l11.455-11.659h4.977L257.425 27.16h-.341l-4.637 4.296ZM248.697 41V6.09h4.023V41h-4.023Zm16.637 0-10.227-12.954 2.863-2.796L270.447 41h-5.113Zm23.518-34.91h5.046l11.863 28.978h.409l11.864-28.977h5.046V41h-3.955V14.477h-.341L307.875 41h-3.818l-10.909-26.523h-.341V41h-3.955V6.09Zm49.862 35.524c-1.659 0-3.164-.313-4.517-.938-1.352-.636-2.426-1.551-3.221-2.744-.796-1.205-1.193-2.66-1.193-4.364 0-1.5.295-2.716.886-3.647a6.26 6.26 0 0 1 2.369-2.216c.989-.534 2.08-.932 3.273-1.194a39.846 39.846 0 0 1 3.631-.647c1.591-.205 2.88-.358 3.869-.46 1-.114 1.727-.302 2.182-.563.466-.262.699-.716.699-1.364v-.136c0-1.682-.46-2.989-1.381-3.92-.909-.932-2.29-1.398-4.142-1.398-1.92 0-3.426.42-4.517 1.261-1.091.841-1.858 1.739-2.301 2.693l-3.818-1.363c.681-1.591 1.591-2.83 2.727-3.716a10.226 10.226 0 0 1 3.75-1.875 15.57 15.57 0 0 1 4.023-.546c.841 0 1.806.102 2.897.307a9.274 9.274 0 0 1 3.188 1.21c1.034.614 1.892 1.54 2.574 2.779.682 1.238 1.022 2.898 1.022 4.977V41h-4.022v-3.545h-.205c-.273.568-.727 1.176-1.363 1.823-.637.648-1.483 1.2-2.54 1.654-1.057.454-2.347.682-3.87.682Zm.614-3.614c1.591 0 2.932-.313 4.023-.938 1.102-.624 1.932-1.431 2.488-2.42.569-.989.853-2.028.853-3.12v-3.681c-.171.204-.546.392-1.125.562a18.98 18.98 0 0 1-1.978.427c-.738.113-1.46.216-2.164.306-.693.08-1.256.148-1.688.205a15.38 15.38 0 0 0-2.932.665c-.897.295-1.625.744-2.181 1.346-.546.591-.819 1.398-.819 2.42 0 1.398.517 2.455 1.552 3.171 1.045.705 2.369 1.057 3.971 1.057Zm18.729 3V14.818h3.886v3.955h.273c.477-1.296 1.341-2.347 2.591-3.154 1.25-.806 2.659-1.21 4.227-1.21.296 0 .665.006 1.108.017.443.011.778.028 1.006.051v4.091a12 12 0 0 0-.938-.153 9.218 9.218 0 0 0-1.517-.12c-1.273 0-2.409.267-3.409.802a6.036 6.036 0 0 0-2.352 2.181c-.568.92-.852 1.972-.852 3.154V41h-4.023Zm21.609-9.546-.068-4.977h.818l11.455-11.659h4.977L384.643 27.16h-.34l-4.637 4.296ZM375.916 41V6.09h4.023V41h-4.023Zm16.637 0-10.228-12.954 2.864-2.796L397.666 41h-5.113Zm19.372.545c-2.523 0-4.699-.556-6.529-1.67-1.818-1.125-3.221-2.693-4.21-4.705-.977-2.022-1.466-4.375-1.466-7.056 0-2.682.489-5.046 1.466-7.091.989-2.057 2.364-3.66 4.125-4.807 1.773-1.16 3.841-1.739 6.205-1.739 1.363 0 2.71.227 4.039.682 1.33.455 2.54 1.193 3.631 2.216 1.091 1.011 1.96 2.352 2.608 4.023.648 1.67.972 3.727.972 6.17v1.705h-20.182v-3.477h16.091c0-1.478-.296-2.796-.887-3.955a6.677 6.677 0 0 0-2.488-2.744c-1.068-.67-2.33-1.006-3.784-1.006-1.603 0-2.989.398-4.159 1.193a7.843 7.843 0 0 0-2.677 3.068 9.013 9.013 0 0 0-.937 4.057v2.318c0 1.977.341 3.654 1.023 5.029.693 1.363 1.653 2.403 2.88 3.119 1.228.705 2.654 1.057 4.279 1.057 1.057 0 2.011-.148 2.863-.443a6.126 6.126 0 0 0 2.233-1.364c.625-.614 1.108-1.375 1.449-2.284l3.887 1.09a8.627 8.627 0 0 1-2.063 3.478c-.966.989-2.159 1.761-3.58 2.318-1.42.546-3.017.819-4.789.819Zm28.346-26.727v3.41h-13.568v-3.41h13.568Zm-9.613-6.273h4.022V33.5c0 1.136.165 1.989.495 2.557.341.557.772.932 1.295 1.125a5.203 5.203 0 0 0 1.688.273 7.15 7.15 0 0 0 1.091-.069l.681-.136.819 3.614a8.22 8.22 0 0 1-1.142.306c-.489.114-1.108.17-1.858.17a8.096 8.096 0 0 1-3.341-.732 6.637 6.637 0 0 1-2.694-2.233c-.704-1-1.056-2.261-1.056-3.784V8.545ZM446.322 41V14.818h4.023V41h-4.023Zm2.046-30.546c-.784 0-1.46-.267-2.029-.8-.556-.535-.835-1.177-.835-1.927s.279-1.392.835-1.926A2.863 2.863 0 0 1 448.368 5c.784 0 1.454.267 2.011.801.568.534.853 1.176.853 1.926s-.285 1.392-.853 1.926a2.8 2.8 0 0 1-2.011.801Zm13.368 14.796V41h-4.023V14.818h3.886v4.091h.341a7.48 7.48 0 0 1 2.796-3.204c1.25-.819 2.863-1.228 4.841-1.228 1.772 0 3.324.364 4.653 1.091 1.33.716 2.364 1.807 3.102 3.273.739 1.454 1.108 3.295 1.108 5.523V41h-4.022V24.636c0-2.056-.534-3.659-1.603-4.806-1.068-1.16-2.534-1.74-4.397-1.74-1.284 0-2.432.28-3.444.836-1 .557-1.789 1.37-2.369 2.438-.579 1.068-.869 2.363-.869 3.886Zm34.623 26.114c-1.943 0-3.613-.25-5.011-.75-1.398-.489-2.562-1.137-3.494-1.944-.921-.795-1.654-1.647-2.199-2.556l3.204-2.25c.364.477.824 1.022 1.381 1.636.557.625 1.318 1.165 2.284 1.62.977.465 2.256.698 3.835.698 2.114 0 3.858-.511 5.233-1.534 1.375-1.023 2.063-2.625 2.063-4.807V36.16h-.341a21.883 21.883 0 0 1-1.261 1.773c-.535.693-1.307 1.312-2.319 1.858-1 .534-2.352.8-4.056.8-2.114 0-4.012-.5-5.694-1.5-1.67-1-2.994-2.454-3.971-4.363-.966-1.909-1.449-4.227-1.449-6.954 0-2.682.472-5.017 1.415-7.006.943-2 2.255-3.545 3.937-4.636 1.682-1.103 3.625-1.654 5.83-1.654 1.704 0 3.057.284 4.057.852 1.011.557 1.784 1.194 2.318 1.91.545.704.966 1.284 1.261 1.738h.409v-4.159h3.887V41.75c0 2.25-.512 4.08-1.535 5.489-1.011 1.42-2.375 2.46-4.09 3.119-1.705.67-3.603 1.006-5.694 1.006Zm-.136-14.387c1.614 0 2.977-.369 4.091-1.108 1.114-.738 1.96-1.8 2.54-3.187.579-1.387.869-3.046.869-4.978 0-1.886-.284-3.55-.852-4.994-.568-1.443-1.409-2.574-2.523-3.392-1.114-.818-2.489-1.227-4.125-1.227-1.705 0-3.125.432-4.261 1.295-1.125.864-1.972 2.023-2.54 3.478-.557 1.454-.835 3.068-.835 4.84 0 1.819.284 3.427.852 4.824.579 1.387 1.432 2.478 2.557 3.273 1.136.784 2.545 1.176 4.227 1.176Z" fill="#C9C3D1"/><path d="M8.66 41v1h.705l.236-.666L8.66 41Zm-4.433 0-.938-.345L2.795 42h1.432v-1ZM17.046 6.09v-1h-.699l-.24.656.939.345Zm4.363 0 .939-.344-.24-.655h-.699v1ZM34.227 41v1h1.433l-.494-1.345-.939.345Zm-4.431 0-.943.334.236.666h.707v-1ZM19.364 11.614l.942-.335-.236-.665h-.706v1Zm-.273 0v-1h-.706l-.237.665.943.335Zm-8.796 15.75v-1h-1v1h1Zm17.864 0h1v-1h-1v1Zm0 3.75v1h1v-1h-1Zm-17.863 0h-1v1h1v-1ZM8.659 40H4.227v2H8.66v-2Zm-3.493 1.345 12.818-34.91-1.877-.689-12.818 34.91 1.877.689ZM17.046 7.09h4.363v-2h-4.363v2Zm3.424-.655L33.29 41.345l1.877-.69L22.348 5.746l-1.878.69ZM34.227 40h-4.431v2h4.431v-2Zm-3.49.666L20.307 11.279l-1.885.67 10.432 29.386 1.885-.67ZM19.365 10.614h-.273v2h.273v-2Zm-1.216.665L7.717 40.666l1.884.669 10.432-29.387-1.885-.669Zm-7.852 17.085h17.863v-2H10.296v2Zm16.863-1v3.75h2v-3.75h-2Zm1 2.75H10.296v2h17.863v-2Zm-16.863 1v-3.75h-2v3.75h2ZM43.142 41v1h1v-1h-1Zm-4.023 0h-1v1h1v-1Zm0-26.182v-1h-1v1h1Zm3.887 0h1v-1h-1v1Zm0 4.091h-1v1h1v-1Zm.34 0v1h.64l.269-.58-.908-.42Zm2.796-3.204.542.84.006-.004-.548-.837Zm9.494-.137-.48.877.006.004.474-.88Zm3.103 3.273-.893.45.001.003.892-.453ZM59.847 41v1h1v-1h-1Zm-4.023 0h-1v1h1v-1Zm-1.602-21.17-.736.677.004.004.732-.681Zm-7.841-.904-.483-.876-.004.002.487.874Zm-2.37 2.438-.879-.477.88.477Zm-1.869 3.886V41h2V25.25h-2Zm1 14.75h-4.023v2h4.023v-2Zm-3.023 1V14.818h-2V41h2Zm-1-25.182h3.887v-2h-3.887v2Zm2.887-1v4.091h2v-4.09h-2Zm1 5.091h.34v-2h-.34v2Zm1.249-.58a6.478 6.478 0 0 1 2.43-2.784l-1.085-1.68a8.477 8.477 0 0 0-3.161 3.625l1.816.838Zm2.435-2.788c1.042-.682 2.449-1.064 4.293-1.064v-2c-2.11 0-3.93.437-5.389 1.39l1.096 1.674Zm4.293-1.064c1.634 0 3.014.334 4.174.968l.96-1.754c-1.5-.82-3.222-1.214-5.134-1.214v2Zm4.18.972c1.133.61 2.028 1.542 2.683 2.842l1.786-.9c-.823-1.632-1.996-2.882-3.521-3.703l-.949 1.76Zm2.684 2.845c.646 1.272 1 2.945 1 5.07h2c0-2.33-.386-4.34-1.217-5.976l-1.783.906Zm1 5.07V41h2V24.364h-2Zm1 15.636h-4.023v2h4.023v-2Zm-3.023 1V24.636h-2V41h2Zm0-16.364c0-2.228-.582-4.103-1.87-5.488l-1.464 1.363c.847.91 1.334 2.24 1.334 4.125h2Zm-1.867-5.484c-1.292-1.402-3.046-2.061-5.133-2.061v2c1.64 0 2.818.5 3.662 1.416l1.47-1.355Zm-5.133-2.061c-1.434 0-2.75.312-3.926.96l.965 1.751c.848-.466 1.826-.711 2.96-.711v-2Zm-3.93.961c-1.176.655-2.097 1.61-2.762 2.835l1.758.953c.495-.912 1.153-1.581 1.977-2.04l-.973-1.748Zm-2.762 2.835c-.676 1.247-.99 2.715-.99 4.363h2c0-1.398.266-2.52.748-3.41l-1.758-.953Zm28.173 19.005-.554.832.004.003.55-.835Zm-3.92-4.705-.907.421v.002l.907-.422Zm0-14.369-.906-.422.906.422Zm3.937-4.687-.548-.837.548.837Zm9.87-.802-.499.868.012.006.487-.873Zm2.284 1.91-.808.59.005.007.006.007.797-.604Zm1.244 1.738-.838.545.295.455h.543v-1Zm.341 0v1h1v-1h-1Zm0-12.886v-1h-1v1h1Zm4.023 0h1v-1h-1v1Zm0 34.909v1h1v-1h-1Zm-3.887 0h-1v1h1v-1Zm0-4.023h1v-1h-1v1Zm-.477 0v-1h-.557l-.293.474.85.526Zm-1.261 1.807.795.606.005-.006-.8-.6Zm-2.335 1.926.482.876.007-.004-.49-.872Zm.596-4.04.603.798.005-.003-.608-.795Zm2.54-3.528.933.36V33.5l-.933-.358Zm.017-10.364-.933.36v.002l.933-.362Zm-2.523-3.443-.597.802.005.004.592-.806Zm-8.386.068.609.794.001-.001-.61-.793Zm-2.54 3.529-.934-.357-.002.004.936.353Zm.017 10.057-.937.35.004.008.933-.358Zm2.557 3.613-.624.782.009.007.615-.789Zm3.682 3.944c-2.005 0-3.736-.504-5.228-1.489l-1.101 1.67c1.848 1.22 3.97 1.819 6.329 1.819v-2ZM71.86 39.06c-1.501-1-2.694-2.42-3.569-4.295l-1.812.845c1.011 2.17 2.432 3.888 4.272 5.114l1.11-1.664Zm-3.568-4.293c-.87-1.875-1.322-4.129-1.322-6.79h-2c0 2.885.49 5.438 1.508 7.631l1.814-.841Zm-1.322-6.79c0-2.637.452-4.873 1.321-6.736l-1.812-.845c-1.018 2.182-1.509 4.718-1.509 7.581h2Zm1.321-6.736c.874-1.873 2.07-3.285 3.58-4.274l-1.097-1.673c-1.854 1.215-3.282 2.93-4.295 5.102l1.812.845Zm3.58-4.274c1.503-.985 3.252-1.49 5.281-1.49v-2c-2.38 0-4.517.598-6.378 1.817l1.097 1.673Zm5.281-1.49c1.61 0 2.761.271 3.541.72l.997-1.734c-1.197-.688-2.739-.986-4.538-.986v2Zm3.553.726c.91.506 1.547 1.055 1.963 1.625l1.615-1.18c-.629-.86-1.514-1.585-2.605-2.192l-.973 1.747Zm1.974 1.64c.527.695.926 1.253 1.203 1.68l1.677-1.09a31.892 31.892 0 0 0-1.286-1.799l-1.594 1.209Zm2.041 2.134h.341v-2h-.34v2Zm1.341-1V6.091h-2v12.886h2Zm-1-11.886h4.023v-2H85.06v2Zm3.023-1V41h2V6.09h-2Zm1 33.909h-3.887v2h3.887v-2Zm-2.887 1v-4.023h-2V41h2Zm-1-5.023h-.477v2h.477v-2Zm-1.327.474a24.864 24.864 0 0 1-1.211 1.733l1.6 1.2c.554-.738.994-1.367 1.311-1.88l-1.7-1.053Zm-1.207 1.727c-.442.581-1.104 1.14-2.03 1.66l.98 1.744c1.098-.616 1.993-1.341 2.641-2.192l-1.59-1.212Zm-2.022 1.656c-.811.447-1.972.711-3.557.711v2c1.778 0 3.31-.292 4.522-.959l-.965-1.752Zm-3.012-.902c1.796 0 3.38-.472 4.694-1.464l-1.205-1.596c-.914.69-2.057 1.06-3.489 1.06v2Zm4.699-1.467c1.28-.98 2.229-2.317 2.865-3.963l-1.866-.72c-.523 1.354-1.268 2.37-2.215 3.094l1.216 1.589Zm2.866-3.965c.632-1.648.935-3.517.935-5.59h-2c0 1.88-.276 3.5-.803 4.874l1.868.716Zm.935-5.59c0-2.05-.297-3.888-.92-5.493l-1.864.723c.514 1.326.784 2.91.784 4.77h2Zm-.919-5.49c-.626-1.63-1.574-2.943-2.864-3.89l-1.184 1.611c.938.69 1.672 1.671 2.182 2.996l1.866-.718Zm-2.858-3.887c-1.316-.98-2.91-1.442-4.723-1.442v2c1.461 0 2.616.367 3.528 1.046l1.195-1.604Zm-4.723-1.442c-1.882 0-3.529.486-4.871 1.52l1.22 1.585c.93-.716 2.124-1.105 3.651-1.105v-2Zm-4.87 1.52c-1.29.989-2.24 2.325-2.865 3.964l1.868.713c.511-1.337 1.254-2.354 2.215-3.091l-1.218-1.587Zm-2.867 3.968c-.605 1.607-.9 3.388-.9 5.33h2c0-1.74.264-3.277.772-4.624l-1.872-.706Zm-.9 5.33c0 1.966.3 3.78.916 5.43l1.874-.7c-.52-1.396-.79-2.968-.79-4.73h-2Zm.92 5.438c.635 1.656 1.585 3.015 2.866 4.037l1.248-1.563c-.97-.774-1.723-1.824-2.247-3.19l-1.867.716Zm2.875 4.044c1.34 1.045 2.976 1.54 4.842 1.54v-2c-1.498 0-2.68-.39-3.612-1.117l-1.23 1.577Zm28.672 2.484-.526.85.006.004.52-.854Zm-4.21-4.705-.9.435.002.007.898-.442Zm0-14.147-.902-.433v.002l.902.43Zm4.125-4.807.546.838.001-.001-.547-.837Zm10.244-1.057.323-.946-.323.946Zm3.631 2.216-.684.73.004.003.68-.733Zm2.608 4.023.932-.362-.932.362Zm.971 7.875v1h1v-1h-1Zm-20.182 0h-1v1h1v-1Zm0-3.477v-1h-1v1h1Zm16.091 0v1h1v-1h-1Zm-.886-3.955-.895.447.004.007.891-.454Zm-2.489-2.744-.531.847.004.002.527-.85Zm-7.943.187.56.828h.002l-.562-.828Zm-2.676 3.068-.896-.444.896.444Zm.085 11.404-.896.444.005.009.891-.453Zm2.881 3.119-.504.864.006.003.498-.867Zm7.142.614.327.945.008-.003-.335-.942Zm2.233-1.364.694.72.006-.006-.7-.714Zm1.449-2.284.27-.963-.884-.248-.323.86.937.35Zm3.886 1.09.955.297.305-.981-.99-.278-.27.963Zm-2.062 3.478.715.699.004-.004-.719-.695Zm-3.58 2.318.358.934.007-.003-.365-.93Zm-4.79-.181c-2.372 0-4.361-.523-6.008-1.525l-1.04 1.708c2.012 1.225 4.375 1.816 7.048 1.816v-2Zm-6.002-1.521c-1.651-1.022-2.929-2.444-3.839-4.296l-1.795.883c1.067 2.171 2.596 3.885 4.582 5.113l1.052-1.7Zm-3.836-4.29c-.9-1.863-1.366-4.061-1.366-6.621h-2c0 2.803.51 5.31 1.565 7.491l1.801-.87Zm-1.366-6.621c0-2.56.466-4.772 1.368-6.66l-1.805-.862c-1.052 2.202-1.563 4.718-1.563 7.522h2Zm1.367-6.658c.916-1.907 2.174-3.363 3.77-4.402l-1.092-1.676c-1.928 1.256-3.42 3.005-4.48 5.212l1.802.866Zm3.771-4.403c1.591-1.04 3.465-1.576 5.657-1.576v-2c-2.535 0-4.798.624-6.752 1.902l1.095 1.674Zm5.657-1.576c1.25 0 2.488.208 3.716.628l.647-1.892a13.406 13.406 0 0 0-4.363-.736v2Zm3.716.628c1.187.406 2.276 1.067 3.271 2l1.368-1.46c-1.188-1.113-2.519-1.929-3.992-2.432l-.647 1.892Zm3.275 2.003c.959.89 1.751 2.094 2.355 3.651l1.865-.723c-.692-1.783-1.638-3.26-2.861-4.394l-1.359 1.466Zm2.355 3.651c.59 1.522.904 3.448.904 5.81h2c0-2.526-.334-4.713-1.039-6.533l-1.865.723Zm.904 5.81v1.704h2v-1.705h-2Zm1 .704H98.646v2h20.182v-2Zm-19.182 1v-3.477h-2v3.477h2Zm-1-2.477h16.091v-2h-16.09v2Zm17.091-1c0-1.614-.323-3.091-.995-4.41l-1.782.91c.51 1 .777 2.159.777 3.5h2Zm-.992-4.402a7.673 7.673 0 0 0-2.855-3.147l-1.055 1.7a5.675 5.675 0 0 1 2.121 2.341l1.789-.894Zm-2.851-3.144c-1.251-.785-2.703-1.16-4.316-1.16v2c1.296 0 2.367.298 3.253.854l1.063-1.694Zm-4.316-1.16c-1.775 0-3.363.444-4.721 1.367l1.124 1.654c.983-.668 2.168-1.02 3.597-1.02v-2Zm-4.719 1.366a8.841 8.841 0 0 0-3.012 3.452l1.792.888a6.85 6.85 0 0 1 2.34-2.684l-1.12-1.656Zm-3.012 3.452a10.013 10.013 0 0 0-1.042 4.501h2c0-1.293.279-2.493.834-3.613l-1.792-.888Zm-1.042 4.501v2.318h2V26.41h-2Zm0 2.318c0 2.089.36 3.926 1.127 5.473l1.792-.889c-.596-1.203-.919-2.718-.919-4.584h-2Zm1.132 5.482c.773 1.521 1.862 2.71 3.268 3.53l1.008-1.728c-1.049-.611-1.88-1.502-2.493-2.709l-1.783.907Zm3.274 3.533c1.4.804 3.003 1.19 4.776 1.19v-2c-1.476 0-2.726-.319-3.78-.924l-.996 1.734Zm4.776 1.19c1.15 0 2.217-.16 3.191-.498l-.655-1.89c-.73.253-1.572.388-2.536.388v2Zm3.199-.501a7.136 7.136 0 0 0 2.592-1.586l-1.388-1.44a5.133 5.133 0 0 1-1.874 1.141l.67 1.885Zm2.598-1.592c.74-.727 1.298-1.616 1.685-2.647l-1.873-.702c-.295.787-.703 1.42-1.213 1.921l1.401 1.428Zm.478-2.035 3.887 1.09.54-1.925-3.886-1.09-.541 1.925Zm3.202-.169a7.615 7.615 0 0 1-1.827 3.08l1.439 1.389a9.615 9.615 0 0 0 2.298-3.876l-1.91-.593Zm-1.823 3.075c-.857.877-1.927 1.576-3.229 2.086l.73 1.862c1.539-.603 2.855-1.45 3.93-2.55l-1.431-1.398Zm-3.222 2.084c-1.289.495-2.762.752-4.432.752v2c1.876 0 3.596-.29 5.148-.885l-.716-1.867Zm31.074-19.112.272.962 1.01-.286-.334-.994-.948.318Zm-3.614 1.023-.935.353.324.859.884-.25-.273-.963Zm-1.005-1.756-.802.597.006.01.007.008.789-.615Zm-1.773-1.432.447-.894-.447.894Zm-6.887.546.567.823.002-.001-.569-.823Zm-.494 5.147-.623.782.623-.782Zm3.409 1.45-.242.97h.004l.238-.97Zm3.887.954-.239.97.003.001.236-.971Zm5.233 2.608-.714.7.003.003.711-.703Zm.426 8.505-.808-.59-.003.005.811.585Zm-15.563 2.08.552-.834-.552.834Zm-3.324-5.08-.242-.97-.933.233.197.942.978-.205Zm3.819-.954.968-.25-.248-.961-.963.24.243.97Zm2.062 3.17-.572.82.005.004.567-.824Zm8.472-.136.585.81h.001l-.586-.81Zm.716-5.182-.701.714.006.006.695-.72Zm-2.932-1.398-.228.974h.001l.227-.974Zm-4.364-1.023-.231.974h.003l.228-.974Zm-5.284-2.642-.734.68.006.006.728-.686Zm-.426-8.437-.804-.595-.004.005.808.59Zm3.426-2.676-.407-.914-.002.002.409.912Zm11.045.733-.609.792.003.003.606-.795Zm2.899 3.538-3.614 1.022.545 1.925 3.613-1.023-.544-1.924Zm-2.406 1.632a7.713 7.713 0 0 0-1.153-2.018l-1.577 1.23c.389.498.671.996.859 1.494l1.871-.706Zm-1.14-2c-.539-.724-1.26-1.296-2.127-1.73l-.894 1.79c.632.316 1.093.699 1.418 1.134l1.603-1.195Zm-2.127-1.73c-.933-.466-2.06-.668-3.328-.668v2c1.073 0 1.866.174 2.434.457l.894-1.788Zm-3.328-.668c-1.757 0-3.303.407-4.574 1.286l1.137 1.645c.866-.599 1.99-.93 3.437-.93v-2Zm-4.572 1.285c-1.284.883-2.019 2.098-2.019 3.602h2c0-.746.323-1.384 1.152-1.955l-1.133-1.647Zm-2.019 3.602c0 1.278.483 2.366 1.468 3.151l1.246-1.564c-.469-.374-.714-.865-.714-1.587h-2Zm1.468 3.151c.892.711 2.191 1.238 3.79 1.637l.485-1.94c-1.492-.373-2.466-.813-3.029-1.26l-1.246 1.563Zm3.794 1.638 3.886.955.477-1.943-3.886-.954-.477 1.942Zm3.889.955c2.239.544 3.785 1.348 4.755 2.337l1.428-1.4c-1.327-1.353-3.269-2.287-5.712-2.88l-.471 1.943Zm4.758 2.34c.939.949 1.432 2.179 1.432 3.78h2c0-2.059-.654-3.817-2.011-5.187l-1.421 1.407Zm1.432 3.78c0 1.293-.367 2.426-1.103 3.432l1.615 1.18c.992-1.357 1.488-2.906 1.488-4.612h-2Zm-1.106 3.437c-.734 1.018-1.778 1.846-3.175 2.467l.812 1.828c1.671-.743 3.014-1.779 3.985-3.125l-1.622-1.17Zm-3.175 2.467c-1.382.614-3.023.936-4.946.936v2c2.145 0 4.072-.36 5.758-1.108l-.812-1.828Zm-4.946.936c-2.527 0-4.532-.547-6.079-1.572l-1.104 1.668c1.953 1.293 4.369 1.904 7.183 1.904v-2Zm-6.079-1.572c-1.511-1-2.48-2.457-2.897-4.45l-1.957.409c.514 2.461 1.761 4.391 3.75 5.709l1.104-1.668Zm-3.633-3.276 3.818-.954-.485-1.94-3.818.954.485 1.94Zm2.607-1.674c.412 1.596 1.218 2.876 2.459 3.74l1.144-1.64c-.781-.544-1.351-1.379-1.666-2.6l-1.937.5Zm2.464 3.744c1.236.851 2.788 1.233 4.573 1.233v-2c-1.511 0-2.629-.323-3.439-.88l-1.134 1.647ZM133.675 39c2.007 0 3.724-.425 5.051-1.382l-1.171-1.622c-.878.634-2.138 1.004-3.88 1.004v2Zm5.052-1.383c1.309-.948 2.084-2.19 2.084-3.708h-2c0 .732-.338 1.422-1.257 2.088l1.173 1.62Zm2.084-3.708c0-1.172-.422-2.196-1.26-3.004l-1.389 1.44c.435.42.649.918.649 1.564h2Zm-1.254-2.997c-.818-.804-1.994-1.33-3.406-1.659l-.453 1.948c1.225.285 2.004.691 2.458 1.137l1.401-1.426Zm-3.404-1.658-4.364-1.023-.456 1.947 4.364 1.023.456-1.947Zm-4.361-1.023c-2.297-.544-3.848-1.358-4.787-2.355l-1.456 1.372c1.311 1.39 3.283 2.338 5.781 2.93l.462-1.947Zm-4.781-2.347c-.925-1-1.404-2.256-1.404-3.838h-2c0 2.03.633 3.787 1.936 5.195l1.468-1.357Zm-1.404-3.838c0-1.277.353-2.375 1.052-3.331l-1.616-1.18c-.961 1.317-1.436 2.832-1.436 4.51h2Zm1.048-3.326c.727-.983 1.726-1.773 3.031-2.359l-.818-1.825c-1.581.71-2.866 1.704-3.821 2.994l1.608 1.19Zm3.029-2.358c1.308-.582 2.814-.885 4.536-.885v-2c-1.959 0-3.749.345-5.35 1.058l.814 1.827Zm4.536-.885c2.455 0 4.247.54 5.493 1.497l1.219-1.585c-1.709-1.314-3.985-1.912-6.712-1.912v2Zm5.496 1.5c1.321 1.009 2.264 2.339 2.829 4.023l1.896-.636c-.685-2.043-1.856-3.713-3.512-4.977l-1.213 1.59ZM164.071 41h-1v1h1v-1Zm0-34.91v-1h-1v1h1Zm18.511 1.484-.494.87.007.003.487-.873Zm3.887 3.972-.893.45.893-.45Zm0 11.198-.895-.447-.002.005.897.442Zm-3.853 4.023.495.87.004-.003-.499-.867ZM167.48 28.25h-1v1h1v-1Zm0-3.75v-1h-1v1h1Zm12.835-.972-.495-.868.495.868Zm2.472-2.625-.905-.424-.002.004.907.42Zm0-7.517-.907.421.003.008.904-.429Zm-2.489-2.59-.485.874.007.004.478-.878Zm-12-.955v-1h-1v1h1Zm0 31.159v1h1v-1h-1Zm-3.227 0V6.09h-2V41h2Zm-1-33.91h11.795v-2h-11.795v2Zm11.795 0c2.627 0 4.68.476 6.222 1.353l.989-1.738c-1.935-1.1-4.36-1.614-7.211-1.614v2Zm6.229 1.357c1.588.887 2.736 2.07 3.481 3.548l1.786-.9c-.937-1.861-2.381-3.327-4.292-4.394l-.975 1.746Zm3.481 3.548c.763 1.518 1.154 3.225 1.154 5.141h2c0-2.197-.45-4.217-1.368-6.04l-1.786.9Zm1.154 5.141c0 1.917-.391 3.63-1.156 5.161l1.789.895c.917-1.834 1.367-3.858 1.367-6.056h-2Zm-1.158 5.166c-.736 1.491-1.875 2.69-3.454 3.598l.997 1.734c1.898-1.092 3.327-2.575 4.251-4.447l-1.794-.885Zm-3.45 3.596c-1.543.878-3.585 1.352-6.187 1.352v2c2.829 0 5.242-.514 7.176-1.614l-.989-1.738Zm-6.187 1.352h-8.455v2h8.455v-2Zm-7.455 1V24.5h-2v3.75h2Zm-1-2.75h8.318v-2h-8.318v2Zm8.318 0c1.978 0 3.674-.34 5.013-1.103l-.991-1.737c-.934.532-2.25.84-4.022.84v2Zm5.013-1.103c1.302-.742 2.277-1.767 2.883-3.073l-1.814-.841c-.417.899-1.089 1.623-2.06 2.177l.991 1.737Zm2.881-3.069c.593-1.263.879-2.667.879-4.192h-2c0 1.271-.237 2.379-.689 3.343l1.81.85Zm.879-4.192c0-1.524-.286-2.924-.881-4.178l-1.807.857c.451.95.688 2.05.688 3.321h2Zm-.877-4.17c-.608-1.312-1.597-2.33-2.917-3.049l-.957 1.757c.975.53 1.646 1.24 2.06 2.133l1.814-.841Zm-2.911-3.045c-1.347-.747-3.056-1.08-5.053-1.08v2c1.799 0 3.136.304 4.083.829l.97-1.75Zm-5.053-1.08h-7.432v2h7.432v-2Zm-8.432 1V41h2V9.84h-2Zm1 30.159h-4.227v2h4.227v-2Zm29.864-.125-.526.85.006.004.52-.854Zm-4.21-4.705-.901.435.003.007.898-.442Zm0-14.147-.902-.433-.001.002.903.43Zm4.125-4.807.546.838.001-.001-.547-.837Zm10.244-1.057.324-.946-.324.946Zm3.631 2.216-.684.73.004.003.68-.733Zm2.608 4.023.932-.362-.932.362Zm.971 7.875v1h1v-1h-1Zm-20.182 0h-1v1h1v-1Zm0-3.477v-1h-1v1h1Zm16.091 0v1h1v-1h-1Zm-.886-3.955-.894.447.003.007.891-.454Zm-2.489-2.744-.531.847.004.002.527-.85Zm-7.943.187.56.828h.002l-.562-.828Zm-2.676 3.068-.896-.444.896.444Zm.085 11.404-.896.444.005.009.891-.453Zm2.881 3.119-.504.864.006.003.498-.867Zm7.142.614.328.945.007-.003-.335-.942Zm2.233-1.364.694.72.007-.006-.701-.714Zm1.449-2.284.27-.963-.884-.248-.323.86.937.35Zm3.886 1.09.955.297.305-.981-.99-.278-.27.963Zm-2.062 3.478.715.699.004-.004-.719-.695Zm-3.58 2.318.359.934.006-.003-.365-.93Zm-4.79-.181c-2.372 0-4.361-.523-6.008-1.525l-1.04 1.708c2.012 1.225 4.375 1.816 7.048 1.816v-2Zm-6.002-1.521c-1.65-1.022-2.929-2.444-3.839-4.296l-1.795.883c1.068 2.171 2.596 3.885 4.582 5.113l1.052-1.7Zm-3.836-4.29c-.9-1.863-1.366-4.061-1.366-6.621h-2c0 2.803.511 5.31 1.565 7.491l1.801-.87Zm-1.366-6.621c0-2.56.466-4.772 1.368-6.66l-1.805-.862c-1.052 2.202-1.563 4.718-1.563 7.522h2Zm1.367-6.658c.916-1.907 2.175-3.363 3.77-4.402l-1.092-1.676c-1.928 1.256-3.42 3.005-4.481 5.212l1.803.866Zm3.771-4.403c1.592-1.04 3.465-1.576 5.657-1.576v-2c-2.534 0-4.798.624-6.752 1.902l1.095 1.674Zm5.657-1.576c1.25 0 2.488.208 3.717.628l.647-1.892a13.416 13.416 0 0 0-4.364-.736v2Zm3.717.628c1.186.406 2.276 1.067 3.27 2l1.368-1.46c-1.188-1.113-2.519-1.929-3.991-2.432l-.647 1.892Zm3.274 2.003c.959.89 1.751 2.094 2.355 3.651l1.865-.723c-.692-1.783-1.638-3.26-2.86-4.394l-1.36 1.466Zm2.355 3.651c.59 1.522.904 3.448.904 5.81h2c0-2.526-.334-4.713-1.039-6.533l-1.865.723Zm.904 5.81v1.704h2v-1.705h-2Zm1 .704h-20.182v2h20.182v-2Zm-19.182 1v-3.477h-2v3.477h2Zm-1-2.477h16.091v-2h-16.091v2Zm17.091-1c0-1.614-.323-3.091-.995-4.41l-1.782.91c.51 1 .777 2.159.777 3.5h2Zm-.992-4.402a7.673 7.673 0 0 0-2.855-3.147l-1.055 1.7a5.684 5.684 0 0 1 2.122 2.341l1.788-.894Zm-2.851-3.144c-1.251-.785-2.703-1.16-4.316-1.16v2c1.296 0 2.367.298 3.253.854l1.063-1.694Zm-4.316-1.16c-1.775 0-3.363.444-4.721 1.367l1.124 1.654c.984-.668 2.168-1.02 3.597-1.02v-2Zm-4.719 1.366a8.848 8.848 0 0 0-3.012 3.452l1.792.888a6.857 6.857 0 0 1 2.34-2.684l-1.12-1.656Zm-3.012 3.452a10.015 10.015 0 0 0-1.041 4.501h2c0-1.293.278-2.493.833-3.613l-1.792-.888Zm-1.041 4.501v2.318h2V26.41h-2Zm0 2.318c0 2.089.359 3.926 1.126 5.473l1.792-.889c-.596-1.203-.918-2.718-.918-4.584h-2Zm1.131 5.482c.773 1.521 1.862 2.71 3.268 3.53l1.008-1.728c-1.049-.611-1.88-1.502-2.493-2.709l-1.783.907Zm3.274 3.533c1.4.804 3.003 1.19 4.776 1.19v-2c-1.476 0-2.726-.319-3.78-.924l-.996 1.734Zm4.776 1.19c1.15 0 2.218-.16 3.192-.498l-.656-1.89c-.73.253-1.572.388-2.536.388v2Zm3.199-.501a7.128 7.128 0 0 0 2.592-1.586l-1.388-1.44a5.133 5.133 0 0 1-1.874 1.141l.67 1.885Zm2.599-1.592c.739-.727 1.298-1.616 1.684-2.647l-1.873-.702c-.295.787-.703 1.42-1.213 1.921l1.402 1.428Zm.478-2.035 3.886 1.09.54-1.925-3.886-1.09-.54 1.925Zm3.201-.169a7.615 7.615 0 0 1-1.827 3.08l1.439 1.389a9.615 9.615 0 0 0 2.298-3.876l-1.91-.593Zm-1.823 3.075c-.857.877-1.926 1.576-3.229 2.086l.73 1.862c1.539-.603 2.855-1.45 3.93-2.55l-1.431-1.398Zm-3.222 2.084c-1.289.495-2.762.752-4.432.752v2c1.876 0 3.597-.29 5.149-.885l-.717-1.867Zm15.716.882-.426.905.007.003.419-.908Zm-3.222-2.744-.834.55.002.005.832-.555Zm-.306-8.012.844.536.003-.005-.847-.53Zm5.642-3.409.214.977.007-.001-.221-.976Zm3.63-.647-.127-.992h-.002l.129.992Zm3.87-.46.103.994.01-.001-.113-.994Zm2.182-.563-.49-.872-.009.005.499.867Zm-.682-5.42-.716.698.004.004.712-.703Zm-8.659-.137.61.792-.61-.792Zm-2.302 2.693-.336.942.859.307.384-.828-.907-.42Zm-3.818-1.363-.919-.394-.419.978 1.002.357.336-.941Zm2.728-3.716.615.788h.001l-.616-.788Zm3.75-1.875.252.967.005-.001-.257-.966Zm6.92-.239-.184.983.011.002.173-.985Zm3.188 1.21-.515.858.004.002.511-.86Zm2.573 2.779-.876.482.876-.482ZM241.355 41v1h1v-1h-1Zm-4.023 0h-1v1h1v-1Zm0-3.545h1v-1h-1v1Zm-.204 0v-1h-.629l-.273.567.902.433Zm-1.364 1.823.714.701-.714-.7Zm-2.54 1.654-.395-.919.395.919Zm.767-3.87-.493-.87-.004.003.497.867Zm2.489-2.42-.867-.498-.004.007.871.491Zm.852-6.801h1v-2.762l-1.768 2.122.768.64Zm-1.125.562.27.963.013-.003-.283-.96Zm-1.977.427.152.988.013-.002-.165-.986Zm-2.165.306.114.994.014-.002-.128-.992Zm-1.687.205.129.991h.001l-.13-.991Zm-2.932.665.313.95.007-.003-.32-.947Zm-2.182 1.346-.734-.679-.001.001.735.678Zm.733 5.591-.569.822.01.007.559-.829Zm3.358 3.67c-1.531 0-2.891-.287-4.097-.845l-.839 1.816c1.498.692 3.149 1.03 4.936 1.03v-2Zm-4.091-.842c-1.195-.562-2.125-1.359-2.815-2.394l-1.665 1.11c.901 1.35 2.119 2.383 3.628 3.094l.852-1.81Zm-2.813-2.39c-.669-1.014-1.028-2.268-1.028-3.813h-2c0 1.865.437 3.52 1.359 4.915l1.669-1.102Zm-1.028-3.813c0-1.376.272-2.388.731-3.112l-1.689-1.071c-.723 1.14-1.042 2.56-1.042 4.183h2Zm.734-3.117a5.255 5.255 0 0 1 1.997-1.867l-.95-1.76a7.256 7.256 0 0 0-2.742 2.566l1.695 1.061Zm1.997-1.867c.9-.486 1.902-.853 3.012-1.096l-.428-1.953c-1.277.28-2.457.708-3.534 1.29l.95 1.76Zm3.019-1.097a38.757 38.757 0 0 1 3.539-.632l-.259-1.983a40.79 40.79 0 0 0-3.722.664l.442 1.95Zm3.537-.631c1.587-.205 2.868-.357 3.845-.458l-.206-1.99c-1 .104-2.299.259-3.894.464l.255 1.983Zm3.855-.459c1.033-.117 1.929-.322 2.567-.69l-.997-1.733c-.271.156-.83.326-1.796.436l.226 1.987Zm2.558-.684c.853-.479 1.209-1.317 1.209-2.236h-2c0 .377-.109.448-.188.492l.979 1.744Zm1.209-2.236v-.136h-2v.136h2Zm0-.136c0-1.867-.515-3.455-1.669-4.623l-1.423 1.405c.687.696 1.092 1.721 1.092 3.218h2Zm-1.665-4.619c-1.164-1.194-2.851-1.7-4.857-1.7v2c1.698 0 2.773.427 3.426 1.097l1.431-1.397Zm-4.857-1.7c-2.056 0-3.805.45-5.128 1.47l1.221 1.584c.859-.662 2.122-1.053 3.907-1.053v-2Zm-5.128 1.47c-1.18.91-2.069 1.926-2.598 3.064l1.814.842c.358-.77 1.003-1.55 2.005-2.322l-1.221-1.584Zm-1.354 2.543-3.818-1.363-.673 1.883 3.818 1.364.673-1.884Zm-3.236-.027c.629-1.467 1.445-2.558 2.424-3.322l-1.23-1.577c-1.294 1.01-2.297 2.396-3.032 4.11l1.838.789Zm2.425-3.323a9.211 9.211 0 0 1 3.386-1.695l-.505-1.935a11.225 11.225 0 0 0-4.114 2.055l1.233 1.575Zm3.391-1.696a14.574 14.574 0 0 1 3.765-.512v-2c-1.411 0-2.838.195-4.28.58l.515 1.932Zm3.765-.512c.763 0 1.666.093 2.714.29l.368-1.966c-1.133-.212-2.163-.324-3.082-.324v2Zm2.725.292c.974.17 1.921.528 2.846 1.083l1.029-1.715a10.271 10.271 0 0 0-3.529-1.338l-.346 1.97Zm2.85 1.085c.856.508 1.597 1.29 2.208 2.401l1.752-.964c-.752-1.368-1.727-2.437-2.939-3.157l-1.021 1.72Zm2.208 2.401c.571 1.038.899 2.51.899 4.495h2c0-2.174-.354-4.02-1.147-5.46l-1.752.965Zm.899 4.495V41h2V23.75h-2Zm1 16.25h-4.023v2h4.023v-2Zm-3.023 1v-3.545h-2V41h2Zm-1-4.545h-.204v2h.204v-2Zm-1.106.567c-.209.436-.585.955-1.175 1.556l1.427 1.401c.682-.694 1.215-1.391 1.551-2.092l-1.803-.865Zm-1.175 1.556c-.525.534-1.253 1.019-2.222 1.435l.791 1.837c1.145-.492 2.11-1.11 2.858-1.87l-1.427-1.402Zm-2.222 1.435c-.898.387-2.045.6-3.474.6v2c1.617 0 3.05-.24 4.265-.763l-.791-1.837ZM229.969 39c1.72 0 3.242-.338 4.52-1.07l-.995-1.735c-.904.518-2.063.805-3.525.805v2Zm4.516-1.068c1.241-.704 2.21-1.634 2.866-2.8l-1.742-.98c-.458.812-1.148 1.495-2.111 2.04l.987 1.74Zm2.862-2.792c.651-1.133.985-2.343.985-3.617h-2c0 .908-.234 1.777-.719 2.62l1.734.997Zm.985-3.617V27.84h-2v3.682h2Zm-1.768-4.322c.039-.047.039-.024-.088.04a3.43 3.43 0 0 1-.551.203l.565 1.919c.324-.096.623-.205.881-.334.247-.123.52-.296.73-.548l-1.537-1.28Zm-.626.24c-.526.146-1.148.282-1.872.402l.329 1.973c.775-.13 1.471-.278 2.082-.45l-.539-1.926Zm-1.86.4c-.731.113-1.445.214-2.141.304l.256 1.983a90.788 90.788 0 0 0 2.189-.31l-.304-1.977Zm-2.127.302c-.696.08-1.264.149-1.704.206l.261 1.983c.424-.055.981-.123 1.671-.202l-.228-1.987Zm-1.702.206c-1.104.144-2.146.38-3.123.71l.64 1.894a14.354 14.354 0 0 1 2.741-.62l-.258-1.984Zm-3.116.707c-1.034.34-1.914.873-2.603 1.617l1.468 1.358c.426-.46.999-.825 1.761-1.075l-.626-1.9Zm-2.604 1.618c-.758.822-1.083 1.895-1.083 3.099h2c0-.843.221-1.383.553-1.742l-1.47-1.357Zm-1.083 3.099c0 1.683.645 3.067 1.982 3.992l1.138-1.644c-.731-.506-1.12-1.236-1.12-2.348h-2Zm1.992 4c1.25.842 2.783 1.227 4.531 1.227v-2c-1.457 0-2.572-.32-3.413-.886l-1.118 1.658Zm27.009-6.319-.999.014.03 2.248 1.649-1.528-.68-.734Zm-.068-4.977v-1h-1.014l.014 1.014 1-.014Zm.818 0v1h.42l.294-.299-.714-.7Zm11.455-11.659v-1h-.419l-.294.3.713.7Zm4.977 0 .711.703 1.685-1.703h-2.396v1ZM257.425 27.16v1h.417l.294-.297-.711-.703Zm-.341 0v-1h-.392l-.288.267.68.733ZM248.697 41h-1v1h1v-1Zm0-34.91v-1h-1v1h1Zm4.023 0h1v-1h-1v1Zm0 34.91v1h1v-1h-1Zm12.614 0-.785.62.3.38h.485v-1Zm-10.227-12.954-.699-.716-.644.629.558.706.785-.62Zm2.863-2.796.784-.621-.689-.87-.793.775.698.716ZM270.447 41v1h2.068l-1.284-1.621-.784.621Zm-17-9.56-.068-4.976-2 .027.069 4.977 1.999-.027Zm-1.068-3.963h.818v-2h-.818v2Zm1.532-.299 11.454-11.659-1.426-1.402-11.455 11.66 1.427 1.401Zm10.741-11.36h4.977v-2h-4.977v2Zm4.266-1.703-12.204 12.34 1.422 1.407 12.204-12.34-1.422-1.407Zm-11.493 12.044h-.341v2h.341v-2Zm-1.021.267-4.636 4.295 1.359 1.467 4.636-4.295-1.359-1.468ZM249.697 41V6.09h-2V41h2Zm-1-33.91h4.023v-2h-4.023v2Zm3.023-1V41h2V6.09h-2Zm1 33.91h-4.023v2h4.023v-2Zm13.399.38-10.228-12.954-1.569 1.24 10.227 12.954 1.57-1.24Zm-10.314-11.619 2.864-2.795-1.397-1.432-2.864 2.796 1.397 1.431Zm1.381-2.89 12.478 15.75 1.567-1.242-12.477-15.75-1.568 1.242ZM270.447 40h-5.113v2h5.113v-2Zm18.405-33.91v-1h-1v1h1Zm5.046 0 .925-.378-.254-.621h-.671v1Zm11.863 28.978-.925.38.254.62h.671v-1Zm.409 0v1h.672l.254-.62-.926-.38Zm11.864-28.977v-1h-.671l-.254.621.925.379Zm5.046 0h1v-1h-1v1Zm0 34.909v1h1v-1h-1Zm-3.955 0h-1v1h1v-1Zm0-26.523h1v-1h-1v1Zm-.341 0v-1h-.67l-.255.62.925.38ZM307.875 41v1h.67l.255-.62-.925-.38Zm-3.818 0-.925.38.255.62h.67v-1Zm-10.909-26.523.925-.38-.255-.62h-.67v1Zm-.341 0v-1h-1v1h1Zm0 26.523v1h1v-1h-1Zm-3.955 0h-1v1h1v-1Zm0-33.91h5.046v-2h-5.046v2Zm4.12-.62 11.864 28.977 1.851-.758-11.864-28.977-1.851.758Zm12.789 29.598h.409v-2h-.409v2Zm1.335-.62L318.96 6.47l-1.851-.758-11.864 28.977 1.851.758ZM318.034 7.09h5.046v-2h-5.046v2Zm4.046-1V41h2V6.09h-2Zm1 33.909h-3.955v2h3.955v-2Zm-2.955 1V14.477h-2V41h2Zm-1-27.523h-.341v2h.341v-2Zm-1.266.62L306.95 40.62l1.85.76 10.909-26.522-1.85-.761ZM307.875 40h-3.818v2h3.818v-2Zm-2.893.62-10.909-26.523-1.85.76 10.909 26.523 1.85-.76Zm-11.834-27.143h-.341v2h.341v-2Zm-1.341 1V41h2V14.477h-2Zm1 25.523h-3.955v2h3.955v-2Zm-2.955 1V6.09h-2V41h2Zm44.345-.324-.425.905.006.003.419-.908Zm-3.221-2.744-.835.55.003.005.832-.555Zm-.307-8.012.845.536.002-.005-.847-.53Zm5.642-3.409.214.977.007-.001-.221-.976Zm3.631-.647-.128-.992h-.002l.13.992Zm3.869-.46.103.994.01-.001-.113-.994Zm2.182-.563-.489-.872-.01.005.499.867Zm-.682-5.42-.716.698.005.004.711-.703Zm-8.659-.137.61.792-.61-.792Zm-2.301 2.693-.336.942.859.307.384-.828-.907-.42Zm-3.818-1.363-.919-.394-.42.978 1.002.357.337-.941Zm2.727-3.716.615.788h.001l-.616-.788Zm3.75-1.875.252.967.006-.001-.258-.966Zm6.92-.239-.184.983.012.002.172-.985Zm3.188 1.21-.515.858.005.002.51-.86Zm2.574 2.779-.876.482.876-.482ZM350.714 41v1h1v-1h-1Zm-4.022 0h-1v1h1v-1Zm0-3.545h1v-1h-1v1Zm-.205 0v-1h-.629l-.272.567.901.433Zm-1.363 1.823.713.701-.713-.7Zm-2.54 1.654-.395-.919.395.919Zm.767-3.87-.493-.87-.004.003.497.867Zm2.488-2.42-.867-.498-.004.007.871.491Zm.853-6.801h1v-2.762l-1.768 2.122.768.64Zm-1.125.562.269.963.013-.003-.282-.96Zm-1.978.427.153.988.012-.002-.165-.986Zm-2.164.306.114.994.014-.002-.128-.992Zm-1.688.205.13.991h.001l-.131-.991Zm-2.932.665.313.95.007-.003-.32-.947Zm-2.181 1.346-.735-.679v.001l.735.678Zm.733 5.591-.57.822.011.007.559-.829Zm3.357 3.67c-1.53 0-2.891-.287-4.097-.845l-.839 1.816c1.498.692 3.149 1.03 4.936 1.03v-2Zm-4.091-.842c-1.195-.562-2.125-1.359-2.815-2.394l-1.664 1.11c.901 1.35 2.118 2.383 3.628 3.094l.851-1.81Zm-2.813-2.39c-.669-1.014-1.027-2.268-1.027-3.813h-2c0 1.865.437 3.52 1.358 4.915l1.669-1.102Zm-1.027-3.813c0-1.376.272-2.388.731-3.112l-1.689-1.071c-.723 1.14-1.042 2.56-1.042 4.183h2Zm.733-3.117a5.265 5.265 0 0 1 1.998-1.867l-.951-1.76a7.253 7.253 0 0 0-2.741 2.566l1.694 1.061Zm1.998-1.867a11.437 11.437 0 0 1 3.011-1.096l-.428-1.953c-1.276.28-2.456.708-3.534 1.29l.951 1.76Zm3.018-1.097a38.819 38.819 0 0 1 3.539-.632l-.259-1.983a40.851 40.851 0 0 0-3.722.664l.442 1.95Zm3.537-.631c1.587-.205 2.868-.357 3.845-.458l-.206-1.99c-1 .104-2.299.259-3.894.464l.255 1.983Zm3.855-.459c1.034-.117 1.93-.322 2.567-.69l-.997-1.733c-.271.156-.83.326-1.796.436l.226 1.987Zm2.558-.684c.854-.479 1.21-1.317 1.21-2.236h-2c0 .377-.11.448-.188.492l.978 1.744Zm1.21-2.236v-.136h-2v.136h2Zm0-.136c0-1.867-.516-3.455-1.669-4.623l-1.423 1.405c.687.696 1.092 1.721 1.092 3.218h2Zm-1.665-4.619c-1.165-1.194-2.852-1.7-4.858-1.7v2c1.698 0 2.773.427 3.426 1.097l1.432-1.397Zm-4.858-1.7c-2.056 0-3.804.45-5.128 1.47l1.221 1.584c.859-.662 2.122-1.053 3.907-1.053v-2Zm-5.128 1.47c-1.18.91-2.069 1.926-2.597 3.064l1.814.842c.358-.77 1.003-1.55 2.004-2.322l-1.221-1.584Zm-1.354 2.543-3.818-1.363-.673 1.883 3.819 1.364.672-1.884Zm-3.235-.027c.628-1.467 1.444-2.558 2.423-3.322l-1.23-1.577c-1.294 1.01-2.297 2.396-3.031 4.11l1.838.789Zm2.424-3.323a9.226 9.226 0 0 1 3.386-1.695l-.504-1.935a11.225 11.225 0 0 0-4.114 2.055l1.232 1.575Zm3.392-1.696a14.563 14.563 0 0 1 3.765-.512v-2c-1.411 0-2.839.195-4.281.58l.516 1.932Zm3.765-.512c.763 0 1.665.093 2.713.29l.369-1.966c-1.134-.212-2.164-.324-3.082-.324v2Zm2.725.292c.973.17 1.921.528 2.845 1.083l1.029-1.715a10.271 10.271 0 0 0-3.529-1.338l-.345 1.97Zm2.85 1.085c.855.508 1.597 1.29 2.208 2.401l1.752-.964c-.753-1.368-1.727-2.437-2.94-3.157l-1.02 1.72Zm2.208 2.401c.571 1.038.898 2.51.898 4.495h2c0-2.174-.354-4.02-1.146-5.46l-1.752.965Zm.898 4.495V41h2V23.75h-2Zm1 16.25h-4.022v2h4.022v-2Zm-3.022 1v-3.545h-2V41h2Zm-1-4.545h-.205v2h.205v-2Zm-1.106.567c-.21.436-.585.955-1.176 1.556l1.427 1.401c.682-.694 1.216-1.391 1.552-2.092l-1.803-.865Zm-1.176 1.556c-.524.534-1.253 1.019-2.221 1.435l.79 1.837c1.145-.492 2.11-1.11 2.858-1.87l-1.427-1.402Zm-2.221 1.435c-.899.387-2.046.6-3.475.6v2c1.617 0 3.05-.24 4.265-.763l-.79-1.837ZM339.328 39c1.72 0 3.243-.338 4.52-1.07l-.994-1.735c-.905.518-2.064.805-3.526.805v2Zm4.516-1.068c1.242-.704 2.211-1.634 2.867-2.8l-1.743-.98c-.457.812-1.147 1.495-2.11 2.04l.986 1.74Zm2.863-2.792c.651-1.133.985-2.343.985-3.617h-2c0 .908-.234 1.777-.72 2.62l1.735.997Zm.985-3.617V27.84h-2v3.682h2Zm-1.768-4.322c.039-.047.039-.024-.089.04a3.447 3.447 0 0 1-.55.203l.564 1.919c.324-.096.623-.205.881-.334.248-.123.52-.296.73-.548l-1.536-1.28Zm-.627.24c-.525.146-1.148.282-1.872.402l.329 1.973a19.94 19.94 0 0 0 2.082-.45l-.539-1.926Zm-1.86.4a89.16 89.16 0 0 1-2.14.304l.256 1.983a91.503 91.503 0 0 0 2.189-.31l-.305-1.977Zm-2.126.302c-.696.08-1.265.149-1.704.206l.261 1.983c.424-.055.98-.123 1.671-.202l-.228-1.987Zm-1.703.206c-1.104.144-2.146.38-3.122.71l.639 1.894a14.382 14.382 0 0 1 2.742-.62l-.259-1.984Zm-3.115.707c-1.034.34-1.915.873-2.604 1.617l1.469 1.358c.425-.46.999-.825 1.76-1.075l-.625-1.9Zm-2.604 1.618c-.759.822-1.084 1.895-1.084 3.099h2c0-.843.221-1.383.553-1.742l-1.469-1.357Zm-1.084 3.099c0 1.683.645 3.067 1.982 3.992l1.139-1.644c-.731-.506-1.121-1.236-1.121-2.348h-2Zm1.993 4c1.25.842 2.783 1.227 4.53 1.227v-2c-1.457 0-2.572-.32-3.413-.886l-1.117 1.658ZM358.057 41h-1v1h1v-1Zm0-26.182v-1h-1v1h1Zm3.886 0h1v-1h-1v1Zm0 3.955h-1v1h1v-1Zm.273 0v1h.697l.241-.655-.938-.345Zm2.591-3.154-.542-.84.542.84Zm6.341-1.142h1v-.905l-.901-.09-.099.995Zm0 4.091-.243.97 1.243.311v-1.28h-1Zm-.938-.153-.164.986.013.002.013.002.138-.99Zm-4.926.682.468.884.003-.002-.471-.882Zm-2.352 2.181-.849-.528-.002.003.851.525ZM362.08 41v1h1v-1h-1Zm-3.023 0V14.818h-2V41h2Zm-1-25.182h3.886v-2h-3.886v2Zm2.886-1v3.955h2v-3.955h-2Zm1 4.955h.273v-2h-.273v2Zm1.211-.655c.397-1.075 1.112-1.96 2.195-2.659l-1.084-1.68c-1.418.915-2.429 2.133-2.987 3.648l1.876.691Zm2.195-2.659c1.08-.696 2.298-1.05 3.685-1.05v-2c-1.75 0-3.349.453-4.769 1.37l1.084 1.68Zm3.685-1.05c.284 0 .644.006 1.082.017l.052-2a45.53 45.53 0 0 0-1.134-.017v2Zm1.082.017c.437.011.743.027.932.046l.199-1.99c-.265-.026-.63-.044-1.079-.055l-.052 1.999Zm.032-.949v4.091h2v-4.09h-2Zm1.242 3.121c-.198-.05-.568-.107-1.042-.174l-.276 1.981c.504.07.759.115.833.133l.485-1.94Zm-1.015-.17a10.226 10.226 0 0 0-1.682-.133v2c.485 0 .935.037 1.353.106l.329-1.973Zm-1.682-.133c-1.416 0-2.718.299-3.88.92l.942 1.764c.838-.448 1.809-.683 2.938-.683v-2Zm-3.876.918a7.043 7.043 0 0 0-2.734 2.537l1.698 1.056a5.039 5.039 0 0 1 1.971-1.825l-.935-1.768Zm-2.736 2.54c-.675 1.093-1.001 2.33-1.001 3.679h2c0-1.014.241-1.88.703-2.628l-1.702-1.05Zm-1.001 3.679V41h2V24.432h-2Zm1 15.568h-4.023v2h4.023v-2Zm17.586-8.546-1 .014.031 2.248 1.649-1.528-.68-.734Zm-.068-4.977v-1h-1.014l.014 1.014 1-.014Zm.818 0v1h.42l.294-.299-.714-.7Zm11.455-11.659v-1h-.42l-.294.3.714.7Zm4.977 0 .711.703 1.684-1.703h-2.395v1ZM384.643 27.16v1h.418l.293-.297-.711-.703Zm-.34 0v-1h-.392l-.288.267.68.733ZM375.916 41h-1v1h1v-1Zm0-34.91v-1h-1v1h1Zm4.023 0h1v-1h-1v1Zm0 34.91v1h1v-1h-1Zm12.614 0-.785.62.3.38h.485v-1Zm-10.228-12.954-.698-.716-.644.629.557.706.785-.62Zm2.864-2.796.784-.621-.689-.87-.794.775.699.716ZM397.666 41v1h2.068l-1.284-1.621-.784.621Zm-17-9.56-.068-4.976-2 .027.068 4.977 2-.027Zm-1.068-3.963h.818v-2h-.818v2Zm1.532-.299 11.454-11.659-1.427-1.402-11.454 11.66 1.427 1.401Zm10.741-11.36h4.977v-2h-4.977v2Zm4.266-1.703-12.205 12.34 1.422 1.407 12.205-12.34-1.422-1.407Zm-11.494 12.044h-.34v2h.34v-2Zm-1.02.267-4.636 4.295 1.359 1.467 4.636-4.295-1.359-1.468ZM376.916 41V6.09h-2V41h2Zm-1-33.91h4.023v-2h-4.023v2Zm3.023-1V41h2V6.09h-2Zm1 33.91h-4.023v2h4.023v-2Zm13.398.38L383.11 27.426l-1.57 1.24 10.228 12.954 1.569-1.24Zm-10.313-11.619 2.863-2.795-1.397-1.432-2.863 2.796 1.397 1.431Zm1.381-2.89 12.477 15.75 1.568-1.242-12.477-15.75-1.568 1.242ZM397.666 40h-5.113v2h5.113v-2Zm7.73-.125-.526.85.006.004.52-.854Zm-4.21-4.705-.9.435.003.007.897-.442Zm0-14.147-.901-.433-.001.002.902.43Zm4.125-4.807.546.838.001-.001-.547-.837Zm10.244-1.057.324-.946-.324.946Zm3.631 2.216-.684.73.004.003.68-.733Zm2.608 4.023.932-.362-.932.362Zm.972 7.875v1h1v-1h-1Zm-20.182 0h-1v1h1v-1Zm0-3.477v-1h-1v1h1Zm16.091 0v1h1v-1h-1Zm-.887-3.955-.894.447.003.007.891-.454Zm-2.488-2.744-.532.847.004.002.528-.85Zm-7.943.187.56.828h.002l-.562-.828Zm-2.677 3.068-.896-.444.896.444Zm.086 11.404-.896.444.004.009.892-.453Zm2.88 3.119-.504.864.006.003.498-.867Zm7.142.614.328.945.007-.003-.335-.942Zm2.233-1.364.694.72.007-.006-.701-.714Zm1.449-2.284.27-.963-.884-.248-.322.86.936.35Zm3.887 1.09.955.297.304-.981-.989-.278-.27.963Zm-2.063 3.478.715.699.004-.004-.719-.695Zm-3.58 2.318.359.934.006-.003-.365-.93Zm-4.789-.181c-2.373 0-4.362-.523-6.009-1.525l-1.04 1.708c2.013 1.225 4.376 1.816 7.049 1.816v-2Zm-6.003-1.521c-1.65-1.022-2.929-2.444-3.838-4.296l-1.795.883c1.067 2.171 2.595 3.885 4.581 5.113l1.052-1.7Zm-3.836-4.29c-.9-1.863-1.366-4.061-1.366-6.621h-2c0 2.803.511 5.31 1.566 7.491l1.8-.87Zm-1.366-6.621c0-2.56.466-4.772 1.368-6.66l-1.804-.862c-1.053 2.202-1.564 4.718-1.564 7.522h2Zm1.367-6.658c.917-1.907 2.175-3.363 3.77-4.402l-1.092-1.676c-1.927 1.256-3.419 3.005-4.48 5.212l1.802.866Zm3.771-4.403c1.592-1.04 3.465-1.576 5.658-1.576v-2c-2.535 0-4.798.624-6.752 1.902l1.094 1.674Zm5.658-1.576c1.25 0 2.487.208 3.716.628l.647-1.892a13.41 13.41 0 0 0-4.363-.736v2Zm3.716.628c1.187.406 2.276 1.067 3.27 2l1.368-1.46c-1.188-1.113-2.519-1.929-3.991-2.432l-.647 1.892Zm3.274 2.003c.959.89 1.752 2.094 2.356 3.651l1.864-.723c-.691-1.783-1.637-3.26-2.86-4.394l-1.36 1.466Zm2.356 3.651c.59 1.522.904 3.448.904 5.81h2c0-2.526-.334-4.713-1.04-6.533l-1.864.723Zm.904 5.81v1.704h2v-1.705h-2Zm1 .704h-20.182v2h20.182v-2Zm-19.182 1v-3.477h-2v3.477h2Zm-1-2.477h16.091v-2h-16.091v2Zm17.091-1c0-1.614-.324-3.091-.996-4.41l-1.782.91c.51 1 .778 2.159.778 3.5h2Zm-.992-4.402a7.682 7.682 0 0 0-2.856-3.147l-1.055 1.7a5.684 5.684 0 0 1 2.122 2.341l1.789-.894Zm-2.852-3.144c-1.25-.785-2.702-1.16-4.315-1.16v2c1.296 0 2.366.298 3.252.854l1.063-1.694Zm-4.315-1.16c-1.776 0-3.364.444-4.722 1.367l1.125 1.654c.983-.668 2.167-1.02 3.597-1.02v-2Zm-4.72 1.366a8.856 8.856 0 0 0-3.012 3.452l1.792.888a6.852 6.852 0 0 1 2.341-2.684l-1.121-1.656Zm-3.012 3.452a10.015 10.015 0 0 0-1.041 4.501h2c0-1.293.279-2.493.833-3.613l-1.792-.888Zm-1.041 4.501v2.318h2V26.41h-2Zm0 2.318c0 2.089.36 3.926 1.127 5.473l1.792-.889c-.597-1.203-.919-2.718-.919-4.584h-2Zm1.131 5.482c.773 1.521 1.862 2.71 3.268 3.53l1.008-1.728c-1.048-.611-1.88-1.502-2.493-2.709l-1.783.907Zm3.274 3.533c1.4.804 3.003 1.19 4.777 1.19v-2c-1.477 0-2.726-.319-3.781-.924l-.996 1.734Zm4.777 1.19c1.149 0 2.217-.16 3.191-.498l-.655-1.89c-.731.253-1.572.388-2.536.388v2Zm3.198-.501a7.128 7.128 0 0 0 2.592-1.586l-1.388-1.44a5.12 5.12 0 0 1-1.873 1.141l.669 1.885Zm2.599-1.592c.74-.727 1.298-1.616 1.685-2.647l-1.873-.702c-.295.787-.703 1.42-1.213 1.921l1.401 1.428Zm.478-2.035 3.886 1.09.541-1.925-3.887-1.09-.54 1.925Zm3.201-.169a7.613 7.613 0 0 1-1.826 3.08l1.438 1.389a9.617 9.617 0 0 0 2.299-3.876l-1.911-.593Zm-1.822 3.075c-.857.877-1.927 1.576-3.229 2.086l.729 1.862c1.539-.603 2.856-1.45 3.93-2.55l-1.43-1.398Zm-3.223 2.084c-1.289.495-2.761.752-4.431.752v2c1.875 0 3.596-.29 5.148-.885l-.717-1.867Zm23.915-24.976h1v-1h-1v1Zm0 3.41v1h1v-1h-1Zm-13.568 0h-1v1h1v-1Zm0-3.41v-1h-1v1h1Zm3.955-6.273v-1h-1v1h1Zm4.022 0h1v-1h-1v1Zm.495 27.512-.865.502.006.01.006.01.853-.522Zm1.295 1.125-.346.938.012.004.012.005.322-.947Zm2.779.204.158.988.019-.003.019-.004-.196-.98Zm.681-.136.976-.22-.216-.952-.956.191.196.981Zm.819 3.614.351.936.817-.306-.193-.851-.975.22Zm-1.142.306-.205-.978-.011.002-.011.002.227.974Zm-5.199-.562-.413.911.004.002.409-.913Zm-2.694-2.233-.817.576.004.006.813-.582Zm7.557-23.557v3.41h2v-3.41h-2Zm1 2.41h-13.568v2h13.568v-2Zm-12.568 1v-3.41h-2v3.41h2Zm-1-2.41h13.568v-2h-13.568v2Zm3.955-6.273h4.022v-2h-4.022v2Zm3.022-1V33.5h2V8.545h-2Zm0 24.955c0 1.2.169 2.264.63 3.059l1.73-1.004c-.198-.341-.36-.983-.36-2.055h-2Zm.642 3.079c.437.714 1.033 1.257 1.802 1.54l.693-1.875c-.277-.103-.545-.31-.789-.71l-1.706 1.045Zm1.826 1.55a6.2 6.2 0 0 0 2.01.326v-2c-.487 0-.94-.075-1.366-.22l-.644 1.894Zm2.01.326c.471 0 .892-.024 1.249-.081l-.316-1.975a6.187 6.187 0 0 1-.933.056v2Zm1.287-.088.682-.136-.393-1.962-.682.137.393 1.96Zm-.49-.896.818 3.614 1.951-.442-.818-3.614-1.951.442Zm1.442 2.456a7.27 7.27 0 0 1-.995.265l.409 1.957c.509-.106.947-.22 1.289-.349l-.703-1.873Zm-1.017.27c-.388.09-.924.144-1.631.144v2c.792 0 1.494-.06 2.084-.197l-.453-1.948Zm-1.631.144a7.102 7.102 0 0 1-2.933-.646l-.817 1.826a9.097 9.097 0 0 0 3.75.82v-2Zm-2.929-.644a5.633 5.633 0 0 1-2.292-1.904l-1.627 1.164c.815 1.137 1.848 1.998 3.094 2.562l.825-1.822Zm-2.288-1.898c-.56-.794-.874-1.84-.874-3.208h-2c0 1.678.389 3.154 1.239 4.36l1.635-1.152Zm-.874-3.208V8.545h-2v26.046h2ZM446.322 41h-1v1h1v-1Zm0-26.182v-1h-1v1h1Zm4.023 0h1v-1h-1v1Zm0 26.182v1h1v-1h-1Zm-4.006-31.347-.692.722.008.007.684-.729Zm0-3.852-.684-.729-.008.007.692.722Zm4.04 0-.692.722.007.007.685-.729Zm0 3.852-.685-.728-.007.007.692.721ZM447.322 41V14.818h-2V41h2Zm-1-25.182h4.023v-2h-4.023v2Zm3.023-1V41h2V14.818h-2Zm1 25.182h-4.023v2h4.023v-2Zm-1.977-30.545c-.531 0-.962-.172-1.344-.53l-1.369 1.457a3.857 3.857 0 0 0 2.713 1.072v-2Zm-1.336-.523c-.367-.352-.528-.736-.528-1.205h-2c0 1.031.396 1.932 1.143 2.648l1.385-1.443Zm-.528-1.205c0-.469.161-.853.528-1.204l-1.385-1.444c-.747.717-1.143 1.617-1.143 2.648h2Zm.52-1.197c.382-.359.813-.53 1.344-.53V4a3.857 3.857 0 0 0-2.713 1.073l1.369 1.457Zm1.344-.53c.531 0 .952.17 1.319.523l1.384-1.444A3.8 3.8 0 0 0 448.368 4v2Zm1.326.53c.376.353.538.735.538 1.197h2c0-1.038-.408-1.94-1.168-2.654l-1.37 1.457Zm.538 1.197c0 .462-.162.844-.538 1.198l1.37 1.457c.76-.715 1.168-1.617 1.168-2.655h-2Zm-.545 1.205a1.802 1.802 0 0 1-1.319.523v2a3.799 3.799 0 0 0 2.703-1.08l-1.384-1.443ZM461.736 41v1h1v-1h-1Zm-4.023 0h-1v1h1v-1Zm0-26.182v-1h-1v1h1Zm3.886 0h1v-1h-1v1Zm0 4.091h-1v1h1v-1Zm.341 0v1h.64l.268-.58-.908-.42Zm2.796-3.204.542.84.005-.004-.547-.837Zm9.494-.137-.48.877.006.004.474-.88Zm3.102 3.273-.893.45.002.003.891-.453ZM478.44 41v1h1v-1h-1Zm-4.022 0h-1v1h1v-1Zm-1.603-21.17-.735.677.003.004.732-.681Zm-7.841-.904-.482-.876-.004.002.486.874Zm-2.369 2.438-.879-.477.879.477Zm-1.869 3.886V41h2V25.25h-2Zm1 14.75h-4.023v2h4.023v-2Zm-3.023 1V14.818h-2V41h2Zm-1-25.182h3.886v-2h-3.886v2Zm2.886-1v4.091h2v-4.09h-2Zm1 5.091h.341v-2h-.341v2Zm1.249-.58a6.482 6.482 0 0 1 2.43-2.784l-1.085-1.68a8.484 8.484 0 0 0-3.161 3.625l1.816.838Zm2.435-2.788c1.043-.682 2.449-1.064 4.294-1.064v-2c-2.11 0-3.931.437-5.389 1.39l1.095 1.674Zm4.294-1.064c1.633 0 3.014.334 4.173.968l.96-1.754c-1.5-.82-3.221-1.214-5.133-1.214v2Zm4.179.972c1.133.61 2.029 1.542 2.683 2.842l1.786-.9c-.822-1.632-1.995-2.882-3.521-3.703l-.948 1.76Zm2.685 2.845c.646 1.272.999 2.945.999 5.07h2c0-2.33-.385-4.34-1.216-5.976l-1.783.906Zm.999 5.07V41h2V24.364h-2Zm1 15.636h-4.022v2h4.022v-2Zm-3.022 1V24.636h-2V41h2Zm0-16.364c0-2.228-.582-4.103-1.871-5.488l-1.464 1.363c.848.91 1.335 2.24 1.335 4.125h2Zm-1.867-5.484c-1.292-1.402-3.046-2.061-5.133-2.061v2c1.639 0 2.818.5 3.662 1.416l1.471-1.355Zm-5.133-2.061c-1.434 0-2.751.312-3.926.96l.965 1.751c.847-.466 1.826-.711 2.961-.711v-2Zm-3.93.961c-1.176.655-2.098 1.61-2.762 2.835l1.758.953c.495-.912 1.153-1.581 1.977-2.04l-.973-1.748Zm-2.762 2.835c-.676 1.247-.99 2.715-.99 4.363h2c0-1.398.266-2.52.748-3.41l-1.758-.953Zm29.622 29.727.337-.942-.007-.002-.33.944Zm-3.494-1.944.654-.756-.654.756Zm-2.199-2.556-.575-.819-.762.535.479.798.858-.514Zm3.204-2.25.796-.606-.583-.766-.787.553.574.819Zm1.381 1.636.747-.665-.006-.007-.741.672Zm2.284 1.62.43-.903-.004-.002-.426.904Zm9.068-.836.597.803-.597-.803Zm2.063-10.125h1v-1h-1v1Zm-.341 0v-1h-.557l-.293.474.85.526Zm-1.261 1.773-.791-.612-.002.002.793.61Zm-2.319 1.858.471.882.004-.002-.475-.88Zm-9.75-.7-.513.859.002.001.511-.86Zm-3.971-4.363-.893.452.003.004.89-.456Zm-.034-13.96.903.429.001-.002-.904-.427Zm3.937-4.636.544.839.004-.003-.548-.836Zm9.887-.802-.494.87.011.007.483-.877Zm2.318 1.91-.802.598.006.007.005.007.791-.612Zm1.261 1.738-.838.545.295.455h.543v-1Zm.409 0v1h1v-1h-1Zm0-4.159v-1h-1v1h1Zm3.887 0h1v-1h-1v1Zm-1.535 32.42-.809-.587-.005.008.814.58Zm-4.09 3.12-.359-.934-.007.003.366.931Zm-1.739-14.489-.553-.833.553.833Zm2.54-3.187.922.386-.922-.386Zm.017-9.972.93-.366-.93.366Zm-2.523-3.392-.592.806.592-.806Zm-8.386.068-.605-.796-.004.003.609.793Zm-2.54 3.478-.932-.364-.002.006.934.358Zm.017 9.664-.927.377.004.01.923-.387Zm2.557 3.273-.578.817.01.006.568-.823Zm4.363 14.563c-1.862 0-3.412-.24-4.674-.692l-.674 1.883c1.534.549 3.324.809 5.348.809v-2Zm-4.681-.694c-1.302-.456-2.35-1.046-3.17-1.756l-1.309 1.512c1.044.905 2.326 1.61 3.819 2.132l.66-1.888Zm-3.17-1.756c-.852-.736-1.512-1.51-1.996-2.315l-1.715 1.03c.608 1.012 1.414 1.943 2.403 2.798l1.308-1.513Zm-2.279-.982 3.205-2.25-1.149-1.637-3.205 2.25 1.149 1.637Zm1.835-2.462c.386.506.866 1.075 1.435 1.702l1.482-1.344c-.545-.6-.985-1.123-1.326-1.57l-1.591 1.212Zm1.429 1.695c.668.75 1.55 1.362 2.605 1.86l.852-1.81c-.876-.413-1.517-.88-1.963-1.38l-1.494 1.33Zm2.601 1.857c1.159.553 2.6.796 4.265.796v-2c-1.493 0-2.609-.222-3.405-.601l-.86 1.805Zm4.265.796c2.278 0 4.246-.553 5.83-1.731l-1.193-1.605c-1.166.867-2.687 1.336-4.637 1.336v2Zm5.83-1.731c1.697-1.262 2.466-3.207 2.466-5.61h-2c0 1.961-.606 3.221-1.659 4.005l1.193 1.605Zm2.466-5.61V36.16h-2v5.318h2Zm-1-6.318h-.341v2h.341v-2Zm-1.191.474c-.27.435-.667.996-1.202 1.687l1.581 1.224c.556-.718 1-1.34 1.321-1.859l-1.7-1.052Zm-1.204 1.688c-.426.553-1.076 1.09-2 1.589l.949 1.76c1.098-.592 1.994-1.294 2.636-2.128l-1.585-1.22Zm-1.997 1.587c-.8.427-1.969.683-3.585.683v2c1.792 0 3.328-.278 4.527-.92l-.942-1.763Zm-3.585.683c-1.949 0-3.668-.459-5.183-1.36l-1.022 1.72c1.849 1.099 3.926 1.64 6.205 1.64v-2Zm-5.18-1.358c-1.494-.894-2.694-2.201-3.595-3.961l-1.78.91c1.053 2.06 2.5 3.661 4.348 4.767l1.027-1.716Zm-3.593-3.957c-.878-1.736-1.341-3.891-1.341-6.503h-2c0 2.842.503 5.324 1.556 7.406l1.785-.903Zm-1.341-6.503c0-2.566.451-4.749 1.318-6.577l-1.807-.858c-1.019 2.15-1.511 4.636-1.511 7.435h2Zm1.319-6.58c.872-1.849 2.068-3.244 3.577-4.223l-1.088-1.678c-1.854 1.202-3.284 2.898-4.298 5.048l1.809.854Zm3.581-4.226c1.504-.985 3.252-1.49 5.282-1.49v-2c-2.38 0-4.518.598-6.378 1.817l1.096 1.673Zm5.282-1.49c1.609 0 2.769.27 3.563.722l.988-1.739c-1.207-.685-2.751-.983-4.551-.983v2Zm3.574.729c.922.507 1.572 1.057 1.999 1.63l1.603-1.195c-.64-.859-1.536-1.581-2.637-2.187l-.965 1.752Zm2.01 1.645c.538.695.94 1.25 1.214 1.671l1.677-1.09a27.988 27.988 0 0 0-1.31-1.805l-1.581 1.224Zm2.052 2.126h.409v-2h-.409v2Zm1.409-1v-4.159h-2v4.16h2Zm-1-3.159h3.887v-2h-3.887v2Zm2.887-1V41.75h2V14.818h-2Zm0 26.932c0 2.1-.477 3.707-1.344 4.901l1.619 1.175c1.178-1.624 1.725-3.677 1.725-6.076h-2Zm-1.349 4.909c-.891 1.251-2.092 2.173-3.635 2.765l.717 1.867c1.889-.725 3.415-1.883 4.547-3.472l-1.629-1.16Zm-3.642 2.768c-1.573.619-3.344.937-5.328.937v2c2.199 0 4.223-.353 6.06-1.075l-.732-1.862Zm-5.464-11.45c1.769 0 3.335-.406 4.644-1.274l-1.106-1.667c-.918.61-2.08.941-3.538.941v2Zm4.644-1.274c1.298-.862 2.263-2.09 2.909-3.636l-1.845-.77c-.513 1.227-1.241 2.123-2.17 2.739l1.106 1.667Zm2.909-3.636c.643-1.538.947-3.334.947-5.363h-2c0 1.836-.276 3.357-.792 4.592l1.845.772Zm.947-5.363c0-1.985-.299-3.778-.922-5.36l-1.861.733c.514 1.304.783 2.84.783 4.627h2Zm-.922-5.36c-.628-1.597-1.577-2.889-2.861-3.832l-1.184 1.612c.943.693 1.676 1.663 2.184 2.953l1.861-.733Zm-2.861-3.832c-1.315-.966-2.908-1.421-4.717-1.421v2c1.464 0 2.621.363 3.533 1.033l1.184-1.612Zm-4.717-1.421c-1.879 0-3.524.48-4.866 1.5l1.21 1.591c.93-.707 2.126-1.091 3.656-1.091v-2Zm-4.87 1.502c-1.284.986-2.235 2.3-2.863 3.907l1.863.727c.509-1.302 1.252-2.306 2.218-3.047l-1.218-1.587Zm-2.865 3.913c-.606 1.583-.901 3.32-.901 5.198h2c0-1.667.261-3.157.769-4.483l-1.868-.715Zm-.901 5.198c0 1.922.3 3.662.926 5.201l1.852-.753c-.51-1.257-.778-2.733-.778-4.448h-2Zm.929 5.21c.645 1.543 1.61 2.79 2.902 3.704l1.155-1.633c-.958-.678-1.697-1.613-2.211-2.842l-1.846.771Zm2.912 3.71c1.337.923 2.955 1.353 4.795 1.353v-2c-1.524 0-2.723-.353-3.659-.999l-1.136 1.646Z" fill="#000" mask="url(#b)"/></g><g filter="url(#c)"><path d="M570.646 4.034a3 3 0 0 0-2.923-3.075L540.808.356a3 3 0 0 0-3.057 2.941 3 3 0 0 0 2.923 3.075l23.924.536-.539 24.063a3 3 0 0 0 2.923 3.075 3 3 0 0 0 3.058-2.94l.606-27.072Zm-61.514 60.38 60.591-58.273-4.134-4.348-60.591 58.273 4.134 4.348Z" fill="#C9C3D1"/></g><defs><filter id="a" x=".227" y="5" width="511.45" height="54.364" filterUnits="userSpaceOnUse" color-interpolation-filters="sRGB"><feFlood flood-opacity="0" result="BackgroundImageFix"/><feColorMatrix in="SourceAlpha" values="0 0 0 0 0 0 0 0 0 0 0 0 0 0 0 0 0 0 127 0" result="hardAlpha"/><feOffset dy="4"/><feGaussianBlur stdDeviation="2"/><feComposite in2="hardAlpha" operator="out"/><feColorMatrix values="0 0 0 0 0 0 0 0 0 0 0 0 0 0 0 0 0 0 0.25 0"/><feBlend in2="BackgroundImageFix" result="effect1_dropShadow_0_1"/><feBlend in="SourceGraphic" in2="effect1_dropShadow_0_1" result="shape"/></filter><filter id="c" x="500.998" y=".355" width="73.649" height="72.059" filterUnits="userSpaceOnUse" color-interpolation-filters="sRGB"><feFlood flood-opacity="0" result="BackgroundImageFix"/><feColorMatrix in="SourceAlpha" values="0 0 0 0 0 0 0 0 0 0 0 0 0 0 0 0 0 0 127 0" result="hardAlpha"/><feOffset dy="4"/><feGaussianBlur stdDeviation="2"/><feComposite in2="hardAlpha" operator="out"/><feColorMatrix values="0 0 0 0 0 0 0 0 0 0 0 0 0 0 0 0 0 0 0.25 0"/><feBlend in2="BackgroundImageFix" result="effect1_dropShadow_0_1"/><feBlend in="SourceGraphic" in2="effect1_dropShadow_0_1" result="shape"/></filter></defs></svg>