<svg width="607" height="71" fill="none" xmlns="http://www.w3.org/2000/svg"><g filter="url(#a)"><path d="M9.13 39h-4.8L18.216 1.182h4.727L36.83 39h-4.802l-11.3-31.835h-.296L9.13 39Zm1.773-14.773h19.353v4.063H10.903v-4.063Zm35.584-2.29V39H42.13V10.636h4.21v4.432h.37a8.1 8.1 0 0 1 3.028-3.471c1.354-.887 3.102-1.33 5.244-1.33 1.921 0 3.601.394 5.042 1.182 1.44.775 2.56 1.957 3.36 3.545.8 1.576 1.2 3.57 1.2 5.983V39h-4.357V21.273c0-2.229-.579-3.964-1.736-5.208-1.157-1.255-2.745-1.883-4.764-1.883-1.391 0-2.635.301-3.73.905-1.084.603-1.94 1.483-2.567 2.64-.628 1.157-.942 2.56-.942 4.21Zm36.77 17.654c-2.363 0-4.45-.597-6.26-1.791-1.81-1.207-3.225-2.906-4.247-5.097-1.021-2.204-1.532-4.807-1.532-7.811 0-2.98.51-5.564 1.532-7.756 1.022-2.19 2.444-3.884 4.266-5.078 1.822-1.194 3.927-1.791 6.315-1.791 1.847 0 3.306.308 4.377.923 1.083.604 1.908 1.293 2.474 2.069a33.55 33.55 0 0 1 1.348 1.883h.37V1.182h4.357V39h-4.21v-4.358h-.517a27.93 27.93 0 0 1-1.366 1.957c-.591.776-1.434 1.472-2.53 2.087-1.096.603-2.555.905-4.377.905Zm.591-3.915c1.749 0 3.226-.455 4.432-1.366 1.207-.924 2.124-2.198 2.752-3.823.627-1.637.941-3.527.941-5.669 0-2.117-.307-3.97-.923-5.558-.615-1.6-1.526-2.844-2.733-3.73-1.206-.899-2.696-1.348-4.469-1.348-1.846 0-3.385.474-4.616 1.422-1.219.935-2.136 2.21-2.751 3.822-.604 1.6-.905 3.398-.905 5.392 0 2.02.307 3.853.923 5.503.628 1.637 1.551 2.942 2.77 3.915 1.23.96 2.757 1.44 4.58 1.44Zm32.888 3.915c-2.733 0-5.09-.603-7.072-1.81-1.97-1.218-3.49-2.917-4.561-5.096-1.059-2.192-1.588-4.74-1.588-7.645 0-2.905.529-5.466 1.588-7.682 1.071-2.228 2.56-3.964 4.468-5.207 1.921-1.256 4.161-1.884 6.722-1.884 1.477 0 2.936.246 4.376.739 1.441.492 2.752 1.292 3.934 2.4 1.181 1.096 2.123 2.548 2.825 4.358.702 1.81 1.052 4.038 1.052 6.685v1.846h-21.863v-3.767h17.432c0-1.6-.32-3.028-.961-4.284a7.226 7.226 0 0 0-2.696-2.973c-1.157-.726-2.523-1.09-4.099-1.09-1.736 0-3.238.432-4.506 1.293a8.507 8.507 0 0 0-2.899 3.324 9.765 9.765 0 0 0-1.015 4.395v2.511c0 2.143.369 3.958 1.107 5.448.751 1.477 1.792 2.604 3.121 3.38 1.33.763 2.875 1.144 4.635 1.144 1.145 0 2.179-.16 3.102-.48a6.637 6.637 0 0 0 2.419-1.477c.678-.665 1.201-1.49 1.57-2.475l4.21 1.182a9.337 9.337 0 0 1-2.234 3.767c-1.046 1.071-2.339 1.908-3.878 2.512-1.539.59-3.268.886-5.189.886Zm38.465-22.602-3.915 1.108a7.27 7.27 0 0 0-1.09-1.902c-.467-.628-1.108-1.145-1.92-1.552-.813-.406-1.853-.609-3.121-.609-1.736 0-3.182.4-4.339 1.2-1.145.788-1.718 1.792-1.718 3.01 0 1.084.394 1.94 1.182 2.567.788.628 2.019 1.151 3.693 1.57l4.211 1.034c2.536.615 4.425 1.557 5.669 2.825 1.243 1.256 1.865 2.875 1.865 4.857 0 1.625-.468 3.077-1.404 4.358-.923 1.28-2.216 2.29-3.878 3.028-1.661.739-3.594 1.108-5.798 1.108-2.893 0-5.287-.628-7.183-1.884-1.896-1.255-3.096-3.09-3.601-5.502l4.136-1.034c.394 1.526 1.139 2.67 2.235 3.434 1.108.763 2.554 1.145 4.339 1.145 2.032 0 3.644-.43 4.838-1.293 1.207-.874 1.81-1.92 1.81-3.139 0-.985-.345-1.81-1.034-2.474-.689-.677-1.748-1.182-3.176-1.515l-4.727-1.107c-2.598-.616-4.506-1.57-5.725-2.863-1.206-1.305-1.81-2.936-1.81-4.893 0-1.6.45-3.016 1.348-4.247.911-1.231 2.149-2.198 3.712-2.9 1.576-.701 3.361-1.052 5.355-1.052 2.807 0 5.011.616 6.611 1.847 1.613 1.23 2.758 2.856 3.435 4.875ZM177.494 39V1.182h12.778c2.967 0 5.392.535 7.276 1.606 1.895 1.06 3.299 2.493 4.21 4.303s1.366 3.828 1.366 6.057c0 2.228-.455 4.253-1.366 6.075-.899 1.822-2.29 3.275-4.173 4.358-1.884 1.071-4.297 1.607-7.239 1.607h-9.159v-4.063h9.011c2.031 0 3.663-.35 4.894-1.053 1.231-.701 2.123-1.65 2.677-2.843.566-1.207.85-2.567.85-4.081 0-1.514-.284-2.869-.85-4.063-.554-1.194-1.452-2.13-2.696-2.807-1.243-.689-2.893-1.034-4.949-1.034h-8.051V39h-4.579Zm44.004.59c-2.733 0-5.091-.602-7.073-1.809-1.969-1.218-3.49-2.917-4.561-5.096-1.058-2.192-1.588-4.74-1.588-7.645 0-2.905.53-5.466 1.588-7.682 1.071-2.228 2.561-3.964 4.469-5.207 1.921-1.256 4.161-1.884 6.722-1.884 1.477 0 2.936.246 4.376.739 1.44.492 2.752 1.292 3.933 2.4 1.182 1.096 2.124 2.548 2.826 4.358.701 1.81 1.052 4.038 1.052 6.685v1.846h-21.863v-3.767h17.431c0-1.6-.32-3.028-.96-4.284a7.233 7.233 0 0 0-2.696-2.973c-1.157-.726-2.524-1.09-4.099-1.09-1.736 0-3.238.432-4.506 1.293a8.5 8.5 0 0 0-2.899 3.324 9.766 9.766 0 0 0-1.016 4.395v2.511c0 2.143.37 3.958 1.108 5.448.751 1.477 1.791 2.604 3.121 3.38 1.329.763 2.874 1.144 4.635 1.144 1.145 0 2.179-.16 3.102-.48a6.637 6.637 0 0 0 2.419-1.477c.677-.665 1.2-1.49 1.57-2.475l4.21 1.182a9.337 9.337 0 0 1-2.234 3.767c-1.047 1.071-2.339 1.908-3.878 2.512-1.539.59-3.269.886-5.189.886Zm26.72.075c-1.797 0-3.428-.339-4.893-1.016-1.465-.69-2.629-1.68-3.49-2.973-.862-1.305-1.293-2.88-1.293-4.727 0-1.625.32-2.942.96-3.952a6.777 6.777 0 0 1 2.567-2.4 13.492 13.492 0 0 1 3.545-1.293 43.1 43.1 0 0 1 3.934-.702c1.723-.221 3.12-.387 4.191-.498 1.084-.123 1.872-.326 2.364-.61.505-.283.757-.775.757-1.477v-.148c0-1.822-.498-3.237-1.496-4.247-.985-1.01-2.48-1.514-4.487-1.514-2.08 0-3.712.455-4.893 1.366-1.182.911-2.013 1.884-2.493 2.918l-4.137-1.477c.739-1.724 1.724-3.066 2.955-4.026a11.068 11.068 0 0 1 4.062-2.031 16.87 16.87 0 0 1 4.358-.591c.911 0 1.958.11 3.14.332 1.194.21 2.345.647 3.453 1.312 1.12.664 2.049 1.668 2.788 3.01.739 1.341 1.108 3.139 1.108 5.392V39h-4.358v-3.84h-.222c-.295.615-.787 1.273-1.477 1.975-.689.702-1.606 1.299-2.751 1.791-1.145.493-2.542.739-4.192.739Zm.665-3.915c1.723 0 3.176-.339 4.358-1.016 1.194-.677 2.093-1.55 2.696-2.622.615-1.07.923-2.197.923-3.379v-3.989c-.185.222-.591.425-1.219.61-.615.172-1.329.326-2.142.461-.8.123-1.582.234-2.345.333-.751.086-1.36.16-1.828.221a16.639 16.639 0 0 0-3.176.72c-.973.32-1.761.807-2.364 1.46-.591.64-.886 1.514-.886 2.622 0 1.514.56 2.659 1.68 3.434 1.133.763 2.567 1.145 4.303 1.145Zm24.352-7.09-.074-5.393h.886l12.409-12.63h5.392l-13.221 13.369h-.37l-5.022 4.653ZM269.172 39V1.182h4.358V39h-4.358Zm18.023 0-11.08-14.034 3.103-3.029L292.735 39h-5.54Zm25.478-37.818h5.466l12.852 31.392h.444l12.852-31.392h5.466V39h-4.284V10.267h-.37L333.281 39h-4.136l-11.818-28.733h-.37V39h-4.284V1.182Zm54.018 38.483c-1.798 0-3.429-.339-4.894-1.016-1.465-.69-2.628-1.68-3.49-2.973-.862-1.305-1.292-2.88-1.292-4.727 0-1.625.32-2.942.96-3.952a6.777 6.777 0 0 1 2.567-2.4 13.48 13.48 0 0 1 3.545-1.293 43.14 43.14 0 0 1 3.933-.702c1.724-.221 3.121-.387 4.192-.498 1.083-.123 1.871-.326 2.364-.61.504-.283.757-.775.757-1.477v-.148c0-1.822-.499-3.237-1.496-4.247-.985-1.01-2.481-1.514-4.487-1.514-2.081 0-3.712.455-4.894 1.366-1.181.911-2.012 1.884-2.493 2.918l-4.136-1.477c.739-1.724 1.724-3.066 2.955-4.026a11.068 11.068 0 0 1 4.062-2.031 16.863 16.863 0 0 1 4.358-.591c.911 0 1.957.11 3.139.332 1.194.21 2.345.647 3.453 1.312 1.121.664 2.05 1.668 2.789 3.01.738 1.341 1.108 3.139 1.108 5.392V39h-4.358v-3.84h-.222c-.295.615-.788 1.273-1.477 1.975-.69.702-1.607 1.299-2.752 1.791-1.144.493-2.542.739-4.191.739Zm.664-3.915c1.724 0 3.177-.339 4.358-1.016 1.195-.677 2.093-1.55 2.696-2.622.616-1.07.924-2.197.924-3.379v-3.989c-.185.222-.591.425-1.219.61a20.62 20.62 0 0 1-2.142.461c-.8.123-1.582.234-2.345.333-.751.086-1.361.16-1.828.221a16.622 16.622 0 0 0-3.176.72c-.973.32-1.761.807-2.364 1.46-.591.64-.886 1.514-.886 2.622 0 1.514.56 2.659 1.68 3.434 1.132.763 2.567 1.145 4.302 1.145Zm20.29 3.25V10.636h4.21v4.285h.296c.517-1.404 1.452-2.543 2.806-3.417 1.355-.874 2.881-1.31 4.58-1.31.32 0 .72.005 1.2.018.48.012.843.03 1.09.055v4.432a12.945 12.945 0 0 0-1.016-.166 9.991 9.991 0 0 0-1.643-.13c-1.379 0-2.61.29-3.694.868a6.548 6.548 0 0 0-2.548 2.364c-.615.997-.923 2.136-.923 3.416V39h-4.358Zm23.41-10.34-.074-5.393h.887l12.409-12.63h5.392l-13.222 13.369h-.369l-5.023 4.653ZM406.993 39V1.182h4.357V39h-4.357Zm18.022 0-11.079-14.034 3.102-3.029L430.555 39h-5.54Zm20.987.59c-2.733 0-5.091-.602-7.073-1.809-1.969-1.218-3.49-2.917-4.561-5.096-1.058-2.192-1.588-4.74-1.588-7.645 0-2.905.53-5.466 1.588-7.682 1.071-2.228 2.561-3.964 4.469-5.207 1.92-1.256 4.161-1.884 6.722-1.884 1.477 0 2.936.246 4.376.739 1.44.492 2.751 1.292 3.933 2.4 1.182 1.096 2.124 2.548 2.826 4.358.701 1.81 1.052 4.038 1.052 6.685v1.846h-21.864v-3.767h17.432c0-1.6-.32-3.028-.96-4.284a7.233 7.233 0 0 0-2.696-2.973c-1.157-.726-2.524-1.09-4.099-1.09-1.736 0-3.238.432-4.506 1.293a8.5 8.5 0 0 0-2.899 3.324 9.766 9.766 0 0 0-1.016 4.395v2.511c0 2.143.369 3.958 1.108 5.448.751 1.477 1.791 2.604 3.121 3.38 1.329.763 2.874 1.144 4.635 1.144 1.145 0 2.179-.16 3.102-.48a6.637 6.637 0 0 0 2.419-1.477c.677-.665 1.2-1.49 1.57-2.475l4.21 1.182a9.337 9.337 0 0 1-2.234 3.767c-1.047 1.071-2.339 1.908-3.878 2.512-1.539.59-3.269.886-5.189.886Zm30.709-28.954v3.694h-14.699v-3.694h14.699Zm-10.415-6.795h4.358v27.034c0 1.231.178 2.154.535 2.77.37.603.837 1.01 1.404 1.219a5.63 5.63 0 0 0 1.828.295c.48 0 .874-.024 1.182-.074.307-.061.554-.11.738-.148l.887 3.915a8.88 8.88 0 0 1-1.238.333c-.529.123-1.2.184-2.012.184a8.776 8.776 0 0 1-3.62-.794c-1.169-.53-2.142-1.335-2.917-2.419-.764-1.083-1.145-2.45-1.145-4.1V3.842ZM483.266 39V10.636h4.358V39h-4.358Zm2.216-33.09a3.1 3.1 0 0 1-2.198-.869c-.603-.578-.904-1.274-.904-2.086 0-.813.301-1.509.904-2.087A3.1 3.1 0 0 1 485.482 0c.849 0 1.576.29 2.179.868.615.578.923 1.274.923 2.087 0 .812-.308 1.508-.923 2.086-.603.579-1.33.868-2.179.868Zm14.482 16.027V39h-4.358V10.636h4.21v4.432h.369a8.103 8.103 0 0 1 3.029-3.471c1.354-.887 3.102-1.33 5.244-1.33 1.921 0 3.601.394 5.041 1.182 1.441.775 2.561 1.957 3.361 3.545.8 1.576 1.2 3.57 1.2 5.983V39h-4.358V21.273c0-2.229-.578-3.964-1.735-5.208-1.158-1.255-2.746-1.883-4.765-1.883-1.391 0-2.634.301-3.73.905-1.083.603-1.939 1.483-2.566 2.64-.628 1.157-.942 2.56-.942 4.21Zm37.509 28.29c-2.105 0-3.915-.27-5.429-.812-1.515-.53-2.776-1.231-3.786-2.105-.997-.862-1.791-1.785-2.382-2.77l3.472-2.438c.394.517.892 1.108 1.495 1.773.604.677 1.428 1.262 2.475 1.754 1.059.505 2.443.757 4.155.757 2.289 0 4.179-.554 5.669-1.662 1.489-1.107 2.234-2.843 2.234-5.207v-5.761h-.369c-.32.517-.776 1.157-1.367 1.92-.578.751-1.415 1.422-2.511 2.013-1.083.578-2.548.868-4.395.868-2.29 0-4.346-.542-6.168-1.625-1.809-1.084-3.243-2.66-4.302-4.727-1.047-2.069-1.57-4.58-1.57-7.534 0-2.906.511-5.436 1.533-7.59 1.022-2.167 2.444-3.84 4.266-5.023 1.822-1.194 3.927-1.791 6.315-1.791 1.846 0 3.311.308 4.395.923 1.095.604 1.933 1.293 2.511 2.069a29.555 29.555 0 0 1 1.367 1.883h.443v-4.506h4.21v29.176c0 2.438-.554 4.42-1.662 5.947-1.096 1.538-2.573 2.665-4.432 3.379-1.846.726-3.902 1.09-6.167 1.09Zm-.148-15.585c1.748 0 3.225-.4 4.432-1.2 1.206-.8 2.123-1.951 2.751-3.453.628-1.502.942-3.3.942-5.392 0-2.044-.308-3.848-.923-5.41-.616-1.564-1.527-2.79-2.733-3.676-1.207-.886-2.696-1.33-4.469-1.33-1.847 0-3.385.469-4.617 1.404-1.218.936-2.135 2.191-2.751 3.767-.603 1.576-.905 3.324-.905 5.245 0 1.97.308 3.711.923 5.225.628 1.502 1.552 2.684 2.77 3.546 1.231.85 2.758 1.274 4.58 1.274Z" fill="#C9C3D1"/></g><g filter="url(#b)"><path d="M602.609 6.883a3 3 0 0 0-2.923-3.075l-26.915-.603a3.001 3.001 0 0 0-3.058 2.941 3 3 0 0 0 2.924 3.075l23.924.536-.539 24.064a3 3 0 0 0 2.923 3.074 3 3 0 0 0 3.058-2.94l.606-27.072Zm-56.472 55.531L601.686 8.99l-4.134-4.348-55.549 53.424 4.134 4.348Z" fill="#C9C3D1"/></g><defs><filter id="a" x=".33" y="0" width="553.404" height="58.227" filterUnits="userSpaceOnUse" color-interpolation-filters="sRGB"><feFlood flood-opacity="0" result="BackgroundImageFix"/><feColorMatrix in="SourceAlpha" values="0 0 0 0 0 0 0 0 0 0 0 0 0 0 0 0 0 0 127 0" result="hardAlpha"/><feOffset dy="4"/><feGaussianBlur stdDeviation="2"/><feComposite in2="hardAlpha" operator="out"/><feColorMatrix values="0 0 0 0 0 0 0 0 0 0 0 0 0 0 0 0 0 0 0.25 0"/><feBlend in2="BackgroundImageFix" result="effect1_dropShadow_0_1"/><feBlend in="SourceGraphic" in2="effect1_dropShadow_0_1" result="shape"/></filter><filter id="b" x="538.003" y="3.204" width="68.607" height="67.21" filterUnits="userSpaceOnUse" color-interpolation-filters="sRGB"><feFlood flood-opacity="0" result="BackgroundImageFix"/><feColorMatrix in="SourceAlpha" values="0 0 0 0 0 0 0 0 0 0 0 0 0 0 0 0 0 0 127 0" result="hardAlpha"/><feOffset dy="4"/><feGaussianBlur stdDeviation="2"/><feComposite in2="hardAlpha" operator="out"/><feColorMatrix values="0 0 0 0 0 0 0 0 0 0 0 0 0 0 0 0 0 0 0.25 0"/><feBlend in2="BackgroundImageFix" result="effect1_dropShadow_0_1"/><feBlend in="SourceGraphic" in2="effect1_dropShadow_0_1" result="shape"/></filter></defs></svg>